<?xml version="1.0" encoding="utf-8"?>
<!-- Generator: Adobe Illustrator 25.0.0, SVG Export Plug-In . SVG Version: 6.00 Build 0)  -->
<svg version="1.1" id="Capa_1" xmlns="http://www.w3.org/2000/svg" xmlns:xlink="http://www.w3.org/1999/xlink" x="0px" y="0px"
	 viewBox="0 0 99 99" style="enable-background:new 0 0 99 99;" xml:space="preserve">
<style type="text/css">
	.st0{opacity:0.27;fill:#0077BD;}
	.st1{opacity:0.3;}
	.st2{fill:#2E8CCC;}
	.st3{clip-path:url(#XMLID_2918_);fill:#0077BD;}
	.st4{clip-path:url(#XMLID_2919_);fill:#0077BD;}
	.st5{fill:#0077BD;}
	.st6{fill:#1D71B8;}
	.st7{opacity:0.22;}
	.st8{fill:#FFFFFF;}
	.st9{fill:#ED7233;}
	.st10{fill:#EF8221;}
	.st11{clip-path:url(#XMLID_2920_);fill:#0077BD;}
	.st12{clip-path:url(#XMLID_2921_);fill:#0077BD;}
	.st13{clip-path:url(#XMLID_2922_);fill:#0077BD;}
	.st14{clip-path:url(#XMLID_2923_);fill:#0077BD;}
	.st15{clip-path:url(#XMLID_2924_);fill:#0077BD;}
	.st16{clip-path:url(#XMLID_2925_);fill:#0077BD;}
	.st17{opacity:0.5;}
	.st18{clip-path:url(#XMLID_2926_);fill:#0077BD;}
	.st19{clip-path:url(#XMLID_2927_);fill:#0077BD;}
	.st20{clip-path:url(#XMLID_2928_);fill:#0077BD;}
	.st21{clip-path:url(#XMLID_2929_);fill:#0077BD;}
	.st22{clip-path:url(#XMLID_2930_);fill:#0077BD;}
	.st23{clip-path:url(#XMLID_2931_);fill:#0077BD;}
	.st24{clip-path:url(#XMLID_2932_);fill:#0077BD;}
	.st25{clip-path:url(#XMLID_2933_);fill:#0077BD;}
	.st26{fill:none;stroke:#FFFFFF;stroke-width:4;stroke-miterlimit:10;}
	.st27{clip-path:url(#XMLID_2934_);fill:#0077BD;}
	.st28{clip-path:url(#XMLID_2935_);fill:#0077BD;}
	.st29{fill:#0066CC;}
	.st30{opacity:0.27;fill:#BADAED;}
	.st31{opacity:0.27;fill:url(#SVGID_1_);}
	.st32{fill:none;stroke:#0077BD;stroke-miterlimit:10;}
	.st33{fill:none;stroke:#FFFFFF;stroke-miterlimit:10;}
	.st34{fill:#BADAED;}
	.st35{fill:none;stroke:#FFFFFF;stroke-width:2;stroke-miterlimit:10;}
	.st36{fill:none;stroke:#FFFFFF;stroke-width:3;stroke-miterlimit:10;}
</style>
<g>
	<g>
		<g>
			<path class="st36" d="M14.51,37.48V95c0,1.1,0.9,2,2,2h32.95"/>
		</g>
		<g>
			<path class="st36" d="M83.88,37.48V95c0,1.1-0.9,2-2,2H48.93"/>
		</g>
		<g>
			<path class="st36" d="M1.19,50.11L45.66,5.54c1.94-1.95,5.12-1.95,7.06,0L97.2,50.11"/>
		</g>
	</g>
	<path class="st8" d="M63,96.51V72.15C63,66.57,58.43,62,52.85,62h-7.24c-5.64,0-10.26,4.61-10.26,10.26v24.26
		c0,0.06,0.05,0.11,0.11,0.11h27.44C62.95,96.62,63,96.57,63,96.51z"/>
</g>
</svg>
