<svg id="Capa_1" data-name="Capa 1" xmlns="http://www.w3.org/2000/svg" viewBox="0 0 101 99"><defs><style>.cls-1,.cls-2{fill:#fff;}.cls-1{stroke:#0a77bd;stroke-miterlimit:10;stroke-width:3px;}.cls-3{fill:#0077bd;}</style></defs><circle class="cls-1" cx="48" cy="50" r="46"/><ellipse class="cls-1" cx="48" cy="50" rx="28" ry="46"/><line class="cls-1" x1="48" y1="4" x2="48" y2="96"/><path class="cls-1" d="M5.54,32.28S42,25.11,48,26.55"/><path class="cls-1" d="M90.65,32.16S54.19,25,48.19,26.43"/><path class="cls-1" d="M5.54,67.24S42,74.42,48,73"/><path class="cls-1" d="M90.65,67.36s-36.46,7.18-42.46,5.73"/><polyline class="cls-1" points="2 50 48 50 94 50"/><rect class="cls-2" x="53" y="56.24" width="45" height="31.76" rx="12"/><path class="cls-3" d="M74,78.82v1.31H63.94v-15h9.91v1.31H65.42v5.42h7.35v1.25H65.42v5.74Z"/><path class="cls-3" d="M85.54,67.91a3.83,3.83,0,0,0-.74-.64,5,5,0,0,0-1-.5,7.59,7.59,0,0,0-1.14-.34,6.53,6.53,0,0,0-1.28-.13,4.56,4.56,0,0,0-2.89.75,2.52,2.52,0,0,0-.92,2,2.08,2.08,0,0,0,.43,1.4,3,3,0,0,0,1.37.82,21.92,21.92,0,0,0,2.37.66,17.71,17.71,0,0,1,2.78.8A4.35,4.35,0,0,1,86.37,74,3.37,3.37,0,0,1,87,76.18a3.79,3.79,0,0,1-.4,1.8,3.56,3.56,0,0,1-1.12,1.26,5,5,0,0,1-1.72.75,8.76,8.76,0,0,1-2.18.25A9.53,9.53,0,0,1,79.35,80a8.74,8.74,0,0,1-2-.72,8.24,8.24,0,0,1-1.78-1.21l.75-1.21a5.12,5.12,0,0,0,1,.79,7.75,7.75,0,0,0,1.25.67,7.52,7.52,0,0,0,1.48.46,8.85,8.85,0,0,0,1.64.15,5.1,5.1,0,0,0,2.81-.65,2.17,2.17,0,0,0,1-1.94,2.21,2.21,0,0,0-.5-1.5,3.62,3.62,0,0,0-1.53-.91,21.71,21.71,0,0,0-2.5-.7,16.73,16.73,0,0,1-2.64-.81,3.62,3.62,0,0,1-1.62-1.17,3.19,3.19,0,0,1-.54-1.94A4,4,0,0,1,76.78,67a4.25,4.25,0,0,1,1.9-1.46,7.24,7.24,0,0,1,2.77-.5,8.42,8.42,0,0,1,1.86.2,7.05,7.05,0,0,1,1.58.58,6.76,6.76,0,0,1,1.37,1Z"/></svg>