<svg id="Capa_1" data-name="Capa 1" xmlns="http://www.w3.org/2000/svg" viewBox="0 0 101 99"><defs><style>.cls-1,.cls-2{fill:#fff;}.cls-1{stroke:#0a77bd;stroke-miterlimit:10;stroke-width:3px;}.cls-3{fill:#0077bd;}</style></defs><circle class="cls-1" cx="49.5" cy="49.5" r="46"/><ellipse class="cls-1" cx="49.5" cy="49.5" rx="28" ry="46"/><line class="cls-1" x1="49.5" y1="3.5" x2="49.5" y2="95.5"/><path class="cls-1" d="M7,31.78S43.5,24.61,49.5,26.05"/><path class="cls-1" d="M92.15,31.66s-36.46-7.18-42.46-5.73"/><path class="cls-1" d="M7,66.74S43.5,73.92,49.5,72.47"/><path class="cls-1" d="M92.15,66.86S55.69,74,49.69,72.59"/><polyline class="cls-1" points="3.5 49.5 49.5 49.5 95.5 49.5"/><rect class="cls-2" x="54.5" y="55.74" width="45" height="31.76" rx="12"/><path class="cls-3" d="M65.12,79.63v-15H75v1.31H66.6v5.53h7.08v1.23H66.6v7Z"/><path class="cls-3" d="M77.59,79.63v-15H84a3.91,3.91,0,0,1,1.78.4,4.61,4.61,0,0,1,1.4,1.09,5.13,5.13,0,0,1,.94,1.52,4.63,4.63,0,0,1,.32,1.71,5,5,0,0,1-.41,2A4.38,4.38,0,0,1,86.82,73a3.78,3.78,0,0,1-1.77.87l3.68,5.8H87.06l-3.54-5.55H79.08v5.55Zm1.49-6.86H84a2.51,2.51,0,0,0,1.55-.49,3.22,3.22,0,0,0,1-1.28,4,4,0,0,0,.36-1.68,3.54,3.54,0,0,0-.41-1.68,3.42,3.42,0,0,0-1.1-1.25,2.63,2.63,0,0,0-1.54-.48H79.08Z"/></svg>