<svg id="Capa_1" data-name="Capa 1" xmlns="http://www.w3.org/2000/svg" viewBox="0 0 101 99"><defs><style>.cls-1,.cls-2{fill:#fff;}.cls-1{stroke:#0a77bd;stroke-miterlimit:10;stroke-width:3px;}.cls-3{fill:#0077bd;}</style></defs><circle class="cls-1" cx="49" cy="50" r="46"/><ellipse class="cls-1" cx="49" cy="50" rx="28" ry="46"/><line class="cls-1" x1="49" y1="4" x2="49" y2="96"/><path class="cls-1" d="M6.54,32.28S43,25.11,49,26.55"/><path class="cls-1" d="M91.65,32.16S55.19,25,49.19,26.43"/><path class="cls-1" d="M6.54,67.24S43,74.42,49,73"/><path class="cls-1" d="M91.65,67.36s-36.46,7.18-42.46,5.73"/><polyline class="cls-1" points="3 50 49 50 95 50"/><rect class="cls-2" x="54" y="56.24" width="45" height="31.76" rx="12"/><path class="cls-3" d="M73.25,78.82v1.31H63.15v-15h9.91v1.31H64.63v5.42H72v1.25H64.63v5.74Z"/><path class="cls-3" d="M77.53,67.83v12.3H76.05v-15h1.23l9.86,12.53V65.12h1.49v15H87.25Z"/></svg>