<?xml version="1.0" encoding="utf-8"?>
<!-- Generator: Adobe Illustrator 25.0.0, SVG Export Plug-In . SVG Version: 6.00 Build 0)  -->
<svg version="1.1" id="Capa_1" xmlns="http://www.w3.org/2000/svg" xmlns:xlink="http://www.w3.org/1999/xlink" x="0px" y="0px"
	 viewBox="0 0 290 73" style="enable-background:new 0 0 290 73;" xml:space="preserve">
<style type="text/css">
	.st0{opacity:0.27;fill:#0077BD;}
	.st1{opacity:0.3;}
	.st2{fill:#2E8CCC;}
	.st3{clip-path:url(#XMLID_650_);fill:#0077BD;}
	.st4{clip-path:url(#XMLID_651_);fill:#0077BD;}
	.st5{fill:#0077BD;}
	.st6{fill:#1D71B8;}
	.st7{fill:#ED7233;}
	.st8{fill:#EF8221;}
	.st9{fill:#FFFFFF;}
	.st10{clip-path:url(#XMLID_652_);fill:#0077BD;}
	.st11{clip-path:url(#XMLID_653_);fill:#0077BD;}
	.st12{clip-path:url(#XMLID_654_);fill:#0077BD;}
	.st13{clip-path:url(#XMLID_655_);fill:#0077BD;}
	.st14{opacity:0.5;}
	.st15{clip-path:url(#XMLID_656_);fill:#0077BD;}
	.st16{clip-path:url(#XMLID_657_);fill:#0077BD;}
	.st17{opacity:0.22;}
	.st18{fill:none;stroke:#FFFFFF;stroke-width:4;stroke-miterlimit:10;}
	.st19{clip-path:url(#XMLID_658_);fill:#0077BD;}
	.st20{clip-path:url(#XMLID_659_);fill:#0077BD;}
	.st21{fill:#0066CC;}
	.st22{opacity:0.27;fill:#BADAED;}
	.st23{opacity:0.27;fill:url(#SVGID_1_);}
	.st24{fill:none;stroke:#FFFFFF;stroke-miterlimit:10;}
	.st25{fill:none;stroke:#FFFFFF;stroke-width:2;stroke-miterlimit:10;}
</style>
<g>
	<g>
		<polygon class="st7" points="83.62,16.53 47.57,60.57 23.5,30.44 47.57,49.35 		"/>
		<polygon class="st5" points="11.53,59.06 47.57,15.01 71.65,45.15 47.57,26.24 		"/>
		<rect x="43.5" y="33.6" class="st7" width="2.92" height="2.92"/>
		<rect x="48.72" y="33.6" class="st7" width="2.92" height="2.92"/>
		<rect x="43.5" y="38.84" class="st7" width="2.92" height="2.92"/>
		<rect x="48.72" y="38.84" class="st7" width="2.92" height="2.92"/>
	</g>
	<g>
		<g>
			<g>
				<path class="st5" d="M75.77,48.89v-17.8h3.28l7.29,12.56h-1.74l7.15-12.56h3.3v17.8h-3.7l-0.05-11.87h0.73l-5.78,9.97h-1.76
					l-5.85-9.97h0.81v11.87H75.77z"/>
				<path class="st5" d="M100.55,54.03c-0.67,0-1.34-0.11-2.01-0.33c-0.67-0.22-1.22-0.53-1.67-0.92l1.4-2.85
					c0.29,0.29,0.63,0.51,1.02,0.66c0.38,0.15,0.77,0.23,1.16,0.23c0.52,0,0.94-0.13,1.26-0.39s0.61-0.7,0.87-1.31l0.69-1.68
					l0.29-0.43l4.75-11.8h3.65l-5.95,14.52c-0.42,1.12-0.91,1.99-1.46,2.61c-0.55,0.62-1.15,1.06-1.81,1.31
					S101.35,54.03,100.55,54.03z M102.8,49.43l-5.85-14.21h3.92l4.58,11.47L102.8,49.43z"/>
				<path class="st8" d="M121.99,49.2c-1.32,0-2.55-0.22-3.68-0.67c-1.13-0.45-2.12-1.09-2.95-1.92c-0.83-0.83-1.48-1.81-1.95-2.92
					c-0.46-1.12-0.7-2.35-0.7-3.69c0-1.34,0.23-2.57,0.7-3.69c0.46-1.12,1.12-2.09,1.96-2.92c0.84-0.83,1.83-1.47,2.96-1.92
					c1.13-0.45,2.36-0.67,3.68-0.67c1.48,0,2.83,0.27,4.04,0.8c1.21,0.53,2.22,1.32,3.04,2.35l-2.57,2.44
					c-0.57-0.7-1.22-1.22-1.95-1.58c-0.73-0.36-1.51-0.53-2.36-0.53c-0.8,0-1.53,0.14-2.2,0.42c-0.67,0.28-1.25,0.67-1.74,1.18
					c-0.49,0.51-0.87,1.11-1.14,1.81c-0.27,0.7-0.4,1.47-0.4,2.31s0.13,1.62,0.4,2.31c0.27,0.7,0.65,1.3,1.14,1.81
					c0.49,0.51,1.07,0.9,1.74,1.18c0.67,0.28,1.4,0.42,2.2,0.42c0.85,0,1.64-0.18,2.36-0.55s1.38-0.89,1.95-1.59l2.57,2.44
					c-0.82,1.03-1.83,1.82-3.04,2.36C124.85,48.93,123.49,49.2,121.99,49.2z"/>
				<path class="st8" d="M133.38,33.31c-0.72,0-1.3-0.21-1.74-0.64c-0.44-0.42-0.66-0.95-0.66-1.58c0-0.63,0.22-1.15,0.66-1.58
					c0.44-0.42,1.02-0.64,1.74-0.64c0.7,0,1.28,0.2,1.73,0.6c0.45,0.4,0.67,0.91,0.67,1.54c0,0.66-0.22,1.21-0.66,1.64
					C134.67,33.09,134.09,33.31,133.38,33.31z M131.47,48.89V35.21h3.82v13.68H131.47z"/>
				<path class="st8" d="M137.27,38.57v-3.05h9.13v3.05H137.27z M144.22,49.1c-1.55,0-2.76-0.41-3.62-1.23
					c-0.87-0.82-1.3-2.05-1.3-3.67v-12h3.84v11.92c0,0.58,0.14,1.03,0.43,1.35c0.29,0.32,0.67,0.48,1.16,0.48
					c0.62,0,1.14-0.17,1.57-0.51l1,2.8c-0.38,0.29-0.84,0.5-1.38,0.65S144.81,49.1,144.22,49.1z"/>
				<path class="st8" d="M151.15,54.03c-0.67,0-1.34-0.11-2.01-0.33c-0.67-0.22-1.22-0.53-1.67-0.92l1.4-2.85
					c0.29,0.29,0.63,0.51,1.02,0.66c0.38,0.15,0.77,0.23,1.16,0.23c0.52,0,0.94-0.13,1.26-0.39s0.61-0.7,0.87-1.31l0.69-1.68
					l0.29-0.43l4.75-11.8h3.65l-5.95,14.52c-0.42,1.12-0.91,1.99-1.46,2.61c-0.55,0.62-1.15,1.06-1.81,1.31
					S151.95,54.03,151.15,54.03z M153.4,49.43l-5.85-14.21h3.92l4.58,11.47L153.4,49.43z"/>
				<path class="st5" d="M168.38,48.89h-3.99v-17.8h3.99V48.89z M176.44,41.6h-8.37v-3.48h8.37V41.6z M176.14,31.09h3.97v17.8h-3.97
					V31.09z"/>
				<path class="st5" d="M190.15,49.1c-1.39,0-2.62-0.3-3.71-0.92c-1.08-0.61-1.94-1.45-2.56-2.5c-0.62-1.06-0.93-2.27-0.93-3.62
					c0-1.37,0.31-2.59,0.93-3.65s1.47-1.89,2.56-2.49c1.09-0.6,2.32-0.9,3.71-0.9c1.4,0,2.65,0.3,3.75,0.9
					c1.09,0.6,1.95,1.43,2.57,2.49s0.93,2.28,0.93,3.65s-0.31,2.58-0.93,3.64c-0.62,1.05-1.48,1.88-2.57,2.49
					C192.8,48.79,191.55,49.1,190.15,49.1z M190.15,45.84c0.65,0,1.23-0.15,1.73-0.45c0.5-0.3,0.9-0.73,1.2-1.31
					s0.45-1.25,0.45-2.03c0-0.8-0.15-1.47-0.45-2.03s-0.7-0.99-1.2-1.28c-0.5-0.3-1.07-0.44-1.7-0.44c-0.64,0-1.21,0.15-1.71,0.44
					c-0.51,0.3-0.91,0.72-1.21,1.28c-0.3,0.56-0.45,1.24-0.45,2.03c0,0.78,0.15,1.46,0.45,2.03c0.3,0.58,0.71,1.01,1.21,1.31
					C188.96,45.69,189.53,45.84,190.15,45.84z"/>
				<path class="st5" d="M216.81,35.01c1.04,0,1.97,0.22,2.78,0.65c0.81,0.43,1.44,1.09,1.9,1.98c0.46,0.89,0.69,2.03,0.69,3.42
					v7.83h-3.82v-7.22c0-1.1-0.22-1.92-0.65-2.44s-1.04-0.79-1.82-0.79c-0.57,0-1.08,0.13-1.52,0.39c-0.44,0.26-0.78,0.65-1.02,1.17
					c-0.24,0.52-0.36,1.19-0.36,2.02v6.87h-3.82v-7.22c0-1.1-0.22-1.92-0.65-2.44s-1.06-0.79-1.87-0.79c-0.56,0-1.05,0.13-1.49,0.39
					c-0.44,0.26-0.78,0.65-1.03,1.17c-0.25,0.52-0.37,1.19-0.37,2.02v6.87h-3.82V35.21h3.65v3.71l-0.69-1.07
					c0.44-0.93,1.08-1.64,1.93-2.12c0.85-0.48,1.8-0.72,2.86-0.72c1.21,0,2.27,0.32,3.18,0.95s1.52,1.61,1.81,2.91l-1.35-0.38
					c0.44-1.05,1.14-1.89,2.11-2.53C214.42,35.33,215.53,35.01,216.81,35.01z"/>
				<path class="st5" d="M232.16,49.1c-1.5,0-2.82-0.3-3.94-0.92s-2-1.45-2.62-2.5c-0.62-1.06-0.93-2.27-0.93-3.62
					c0-1.36,0.3-2.57,0.89-3.64c0.6-1.07,1.43-1.9,2.5-2.5c1.07-0.6,2.27-0.9,3.61-0.9c1.29,0,2.45,0.29,3.49,0.86
					s1.86,1.39,2.46,2.44s0.91,2.31,0.91,3.79c0,0.15-0.01,0.33-0.02,0.52c-0.02,0.2-0.03,0.38-0.05,0.55h-10.7v-2.31h8.69
					l-1.49,0.69c0.02-0.71-0.11-1.33-0.39-1.86c-0.28-0.53-0.66-0.94-1.15-1.23c-0.49-0.3-1.06-0.45-1.71-0.45
					c-0.65,0-1.23,0.15-1.73,0.45c-0.5,0.3-0.89,0.71-1.16,1.25c-0.28,0.53-0.42,1.17-0.42,1.89v0.61c0,0.76,0.16,1.42,0.49,1.98
					c0.33,0.56,0.78,0.99,1.35,1.28c0.57,0.3,1.26,0.45,2.06,0.45c0.69,0,1.29-0.11,1.82-0.33c0.53-0.22,1.02-0.55,1.46-0.99
					l2.03,2.29c-0.6,0.71-1.36,1.26-2.28,1.64C234.4,48.91,233.35,49.1,232.16,49.1z"/>
				<path class="st7" d="M242.51,49.1c-0.65,0-1.21-0.23-1.68-0.7c-0.47-0.47-0.7-1.05-0.7-1.77c0-0.75,0.23-1.35,0.7-1.81
					c0.46-0.46,1.02-0.69,1.68-0.69c0.67,0,1.23,0.23,1.69,0.69c0.46,0.46,0.69,1.06,0.69,1.81c0,0.71-0.23,1.3-0.69,1.77
					C243.74,48.86,243.18,49.1,242.51,49.1z"/>
				<path class="st7" d="M254.02,49.1c-1.5,0-2.82-0.3-3.94-0.92s-2-1.45-2.62-2.5c-0.62-1.06-0.93-2.27-0.93-3.62
					c0-1.36,0.3-2.57,0.89-3.64c0.6-1.07,1.43-1.9,2.5-2.5c1.07-0.6,2.27-0.9,3.61-0.9c1.29,0,2.45,0.29,3.49,0.86
					s1.86,1.39,2.46,2.44s0.91,2.31,0.91,3.79c0,0.15-0.01,0.33-0.02,0.52c-0.02,0.2-0.03,0.38-0.05,0.55h-10.7v-2.31h8.69
					l-1.49,0.69c0.02-0.71-0.11-1.33-0.39-1.86c-0.28-0.53-0.66-0.94-1.15-1.23c-0.49-0.3-1.06-0.45-1.71-0.45
					c-0.65,0-1.23,0.15-1.73,0.45c-0.5,0.3-0.89,0.71-1.16,1.25c-0.28,0.53-0.42,1.17-0.42,1.89v0.61c0,0.76,0.16,1.42,0.49,1.98
					c0.33,0.56,0.78,0.99,1.35,1.28c0.57,0.3,1.26,0.45,2.06,0.45c0.69,0,1.29-0.11,1.82-0.33c0.53-0.22,1.02-0.55,1.46-0.99
					l2.03,2.29c-0.6,0.71-1.36,1.26-2.28,1.64C256.26,48.91,255.21,49.1,254.02,49.1z"/>
				<path class="st7" d="M267.36,49.1c-1.13,0-2.2-0.14-3.23-0.42c-1.03-0.28-1.85-0.63-2.47-1.06l1.25-2.82
					c0.62,0.37,1.34,0.68,2.17,0.93c0.82,0.25,1.64,0.37,2.44,0.37c0.88,0,1.5-0.11,1.87-0.33c0.37-0.22,0.55-0.52,0.55-0.92
					c0-0.32-0.14-0.56-0.43-0.72c-0.29-0.16-0.66-0.28-1.13-0.37c-0.47-0.08-0.98-0.17-1.55-0.25c-0.57-0.08-1.14-0.2-1.7-0.36
					c-0.56-0.15-1.09-0.37-1.57-0.65c-0.48-0.28-0.87-0.67-1.15-1.16c-0.29-0.49-0.43-1.13-0.43-1.91c0-0.86,0.25-1.63,0.73-2.3
					c0.49-0.67,1.18-1.19,2.08-1.56s1.98-0.56,3.26-0.56c0.91,0,1.83,0.11,2.75,0.32c0.92,0.21,1.7,0.5,2.34,0.88l-1.3,2.82
					c-0.62-0.37-1.25-0.64-1.9-0.79c-0.64-0.15-1.26-0.23-1.85-0.23c-0.88,0-1.52,0.12-1.91,0.36s-0.59,0.54-0.59,0.92
					c0,0.34,0.15,0.6,0.44,0.78c0.29,0.18,0.68,0.31,1.15,0.39c0.47,0.08,1,0.17,1.57,0.25s1.13,0.2,1.69,0.36
					c0.55,0.15,1.07,0.37,1.55,0.65c0.48,0.28,0.86,0.67,1.15,1.16c0.29,0.49,0.43,1.13,0.43,1.91c0,0.83-0.25,1.57-0.73,2.22
					c-0.49,0.65-1.2,1.17-2.12,1.54C269.8,48.91,268.68,49.1,267.36,49.1z"/>
			</g>
		</g>
		<polygon class="st7" points="211.22,57.06 214.67,57.06 216,53.15 217.55,57.06 221.06,57.06 218.03,59.14 219.28,63 216.14,60.7 
			212.81,63 213.94,59.19 		"/>
		<polygon class="st7" points="224.22,57.06 227.67,57.06 229,53.15 230.55,57.06 234.07,57.06 231.03,59.14 232.28,63 229.14,60.7 
			225.81,63 226.94,59.19 		"/>
		<polygon class="st7" points="237.41,57.06 240.86,57.06 242.19,53.15 243.74,57.06 247.25,57.06 244.21,59.14 245.47,63 
			242.33,60.7 239,63 240.13,59.19 		"/>
		<polygon class="st7" points="250.45,57.06 253.91,57.06 255.23,53.15 256.78,57.06 260.3,57.06 257.26,59.14 258.51,63 
			255.37,60.7 252.05,63 253.17,59.19 		"/>
		<polygon class="st7" points="263.52,57.06 266.98,57.06 268.3,53.15 269.85,57.06 273.37,57.06 270.33,59.14 271.59,63 
			268.45,60.7 265.12,63 266.24,59.19 		"/>
	</g>
</g>
</svg>
