<?xml version="1.0" encoding="utf-8"?>
<!-- Generator: Adobe Illustrator 25.0.0, SVG Export Plug-In . SVG Version: 6.00 Build 0)  -->
<svg version="1.1" id="Capa_1" xmlns="http://www.w3.org/2000/svg" xmlns:xlink="http://www.w3.org/1999/xlink" x="0px" y="0px"
	 viewBox="0 0 1920 810" style="enable-background:new 0 0 1920 810;" xml:space="preserve">
<style type="text/css">
	.st0{opacity:0.27;fill:#0077BD;}
	.st1{opacity:0.3;}
	.st2{fill:#2E8CCC;}
	.st3{clip-path:url(#XMLID_2918_);fill:#0077BD;}
	.st4{clip-path:url(#XMLID_2919_);fill:#0077BD;}
	.st5{fill:#0077BD;}
	.st6{fill:#1D71B8;}
	.st7{opacity:0.22;}
	.st8{fill:#FFFFFF;}
	.st9{fill:#ED7233;}
	.st10{fill:#EF8221;}
	.st11{clip-path:url(#XMLID_2920_);fill:#0077BD;}
	.st12{clip-path:url(#XMLID_2921_);fill:#0077BD;}
	.st13{clip-path:url(#XMLID_2922_);fill:#0077BD;}
	.st14{clip-path:url(#XMLID_2923_);fill:#0077BD;}
	.st15{clip-path:url(#XMLID_2924_);fill:#0077BD;}
	.st16{clip-path:url(#XMLID_2925_);fill:#0077BD;}
	.st17{opacity:0.5;}
	.st18{clip-path:url(#XMLID_2926_);fill:#0077BD;}
	.st19{clip-path:url(#XMLID_2927_);fill:#0077BD;}
	.st20{clip-path:url(#XMLID_2928_);fill:#0077BD;}
	.st21{clip-path:url(#XMLID_2929_);fill:#0077BD;}
	.st22{clip-path:url(#XMLID_2930_);fill:#0077BD;}
	.st23{clip-path:url(#XMLID_2931_);fill:#0077BD;}
	.st24{clip-path:url(#XMLID_2932_);fill:#0077BD;}
	.st25{clip-path:url(#XMLID_2933_);fill:#0077BD;}
	.st26{fill:none;stroke:#FFFFFF;stroke-width:4;stroke-miterlimit:10;}
	.st27{clip-path:url(#XMLID_2934_);fill:#0077BD;}
	.st28{clip-path:url(#XMLID_2935_);fill:#0077BD;}
	.st29{fill:#0066CC;}
	.st30{opacity:0.27;fill:#BADAED;}
	.st31{opacity:0.27;fill:url(#SVGID_1_);}
	.st32{fill:none;stroke:#0077BD;stroke-miterlimit:10;}
	.st33{fill:none;stroke:#FFFFFF;stroke-miterlimit:10;}
	.st34{fill:#BADAED;}
	.st35{fill:none;stroke:#FFFFFF;stroke-width:2;stroke-miterlimit:10;}
</style>
<rect x="0" y="-390" class="st0" width="1920" height="1200"/>
<g id="XMLID_973_">
	<g id="XMLID_1282_">
		<g id="XMLID_1290_">
			<polygon id="XMLID_1296_" class="st2" points="115.83,750.58 162.44,572.79 238.18,572.79 191.57,750.58 			"/>
			<g id="XMLID_1291_">
				<defs>
					<polygon id="XMLID_1292_" points="115.83,750.58 162.44,572.79 238.18,572.79 191.57,750.58 					"/>
				</defs>
				<clipPath id="XMLID_2918_">
					<use xlink:href="#XMLID_1292_"  style="overflow:visible;"/>
				</clipPath>
				<rect id="XMLID_1295_" x="151.68" y="597.16" class="st3" width="83.23" height="5.98"/>
				<rect id="XMLID_1294_" x="140.16" y="643" class="st3" width="83.23" height="5.98"/>
				<rect id="XMLID_1293_" x="128.65" y="688.83" class="st3" width="83.23" height="5.98"/>
			</g>
		</g>
		<g id="XMLID_1283_">
			<polygon id="XMLID_1289_" class="st2" points="376.38,750.58 329.78,572.79 254.04,572.79 300.65,750.58 			"/>
			<g id="XMLID_1284_">
				<defs>
					<polygon id="XMLID_1285_" points="376.38,750.58 329.78,572.79 254.04,572.79 300.65,750.58 					"/>
				</defs>
				<clipPath id="XMLID_2919_">
					<use xlink:href="#XMLID_1285_"  style="overflow:visible;"/>
				</clipPath>
				
					<rect id="XMLID_1288_" x="257.31" y="597.16" transform="matrix(-1 -1.224647e-16 1.224647e-16 -1 597.8513 1200.3068)" class="st4" width="83.23" height="5.98"/>
				
					<rect id="XMLID_1287_" x="268.83" y="643" transform="matrix(-1 -1.224647e-16 1.224647e-16 -1 620.8761 1291.9778)" class="st4" width="83.23" height="5.98"/>
				
					<rect id="XMLID_1286_" x="280.34" y="688.83" transform="matrix(-1 -1.224647e-16 1.224647e-16 -1 643.9009 1383.6487)" class="st4" width="83.23" height="5.98"/>
			</g>
		</g>
	</g>
	<g id="XMLID_1275_">
		<polygon id="XMLID_1281_" class="st5" points="1096.46,751.88 1107.43,466.66 1118.39,466.66 1127.67,751.88 		"/>
		<rect id="XMLID_1280_" x="1084.66" y="449.79" class="st5" width="55.94" height="11.81"/>
		<polygon id="XMLID_1279_" class="st5" points="1107.43,466.66 1084.66,461.6 1140.6,461.6 1118.39,466.66 		"/>
		<path id="XMLID_1278_" class="st5" d="M1145.73,449.79h-67.62c-0.43,0-0.77-0.35-0.77-0.77v-19.55c0-0.43,0.35-0.77,0.77-0.77
			h67.62c0.43,0,0.77,0.35,0.77,0.77v19.55C1146.5,449.44,1146.16,449.79,1145.73,449.79z"/>
		<path id="XMLID_1277_" class="st5" d="M1096.56,355.69l-7.69,73h46.39l-9.47-73.06c-0.17-1.33-1.3-2.32-2.64-2.32h-23.94
			C1097.85,353.31,1096.71,354.33,1096.56,355.69z"/>
		<path id="XMLID_1276_" class="st5" d="M1102.65,357.53l6.68-112.67c0,0,1.69-1.97,3.23,0l6.68,108.45L1102.65,357.53z"/>
	</g>
	<g id="XMLID_1169_">
		<rect id="XMLID_1274_" x="370.39" y="677.79" class="st5" width="552.76" height="14.29"/>
		<g id="XMLID_1220_">
			<rect id="XMLID_1273_" x="341.42" y="682.62" class="st5" width="31.38" height="71.65"/>
			<path id="XMLID_1272_" class="st2" d="M377.29,684.03h-41.56c-0.19,0-0.34-0.15-0.34-0.34v-2.14c0-0.19,0.15-0.34,0.34-0.34
				h41.56c0.19,0,0.34,0.15,0.34,0.34v2.14C377.63,683.88,377.48,684.03,377.29,684.03z"/>
			<path id="XMLID_1271_" class="st2" d="M377.29,699.43h-41.56c-0.19,0-0.34-0.15-0.34-0.34v-2.14c0-0.19,0.15-0.34,0.34-0.34
				h41.56c0.19,0,0.34,0.15,0.34,0.34v2.14C377.63,699.28,377.48,699.43,377.29,699.43z"/>
			<rect id="XMLID_1270_" x="343.23" y="662.29" class="st5" width="27.76" height="18.92"/>
			<path id="XMLID_1269_" class="st5" d="M355.01,644.49l-12.38,17.81h27.76l-11.3-17.73C358.15,643.09,356.01,643.05,355.01,644.49
				z"/>
			<rect id="XMLID_1268_" x="348.93" y="707.18" class="st2" width="16.49" height="31.93"/>
			<rect id="XMLID_1267_" x="631.88" y="610.24" class="st2" width="16.49" height="31.93"/>
			<rect id="XMLID_1266_" x="383.15" y="692.08" class="st5" width="9.37" height="56.7"/>
			<g id="XMLID_1263_">
				<polygon id="XMLID_1265_" class="st5" points="396.24,692.08 392.52,696.25 392.52,692.08 				"/>
				<polygon id="XMLID_1264_" class="st5" points="379.44,692.08 383.15,696.25 383.15,692.08 				"/>
			</g>
			<rect id="XMLID_1262_" x="381.15" y="748.78" class="st5" width="13.37" height="5.49"/>
			<rect id="XMLID_1261_" x="410.91" y="692.08" class="st5" width="9.37" height="56.7"/>
			<g id="XMLID_1258_">
				<polygon id="XMLID_1260_" class="st5" points="423.99,692.08 420.28,696.25 420.28,692.08 				"/>
				<polygon id="XMLID_1259_" class="st5" points="407.2,692.08 410.91,696.25 410.91,692.08 				"/>
			</g>
			<rect id="XMLID_1257_" x="408.91" y="748.78" class="st5" width="13.37" height="5.49"/>
			<rect id="XMLID_1256_" x="438.67" y="692.08" class="st5" width="9.37" height="56.7"/>
			<g id="XMLID_1253_">
				<polygon id="XMLID_1255_" class="st5" points="451.75,692.08 448.04,696.25 448.04,692.08 				"/>
				<polygon id="XMLID_1254_" class="st5" points="434.96,692.08 438.67,696.25 438.67,692.08 				"/>
			</g>
			<rect id="XMLID_1252_" x="436.67" y="748.78" class="st5" width="13.37" height="5.49"/>
			<rect id="XMLID_1251_" x="466.43" y="692.08" class="st5" width="9.37" height="56.7"/>
			<g id="XMLID_1248_">
				<polygon id="XMLID_1250_" class="st5" points="479.51,692.08 475.8,696.25 475.8,692.08 				"/>
				<polygon id="XMLID_1249_" class="st5" points="462.72,692.08 466.43,696.25 466.43,692.08 				"/>
			</g>
			<rect id="XMLID_1247_" x="464.43" y="748.78" class="st5" width="13.37" height="5.49"/>
			<rect id="XMLID_1246_" x="494.19" y="692.08" class="st5" width="9.37" height="56.7"/>
			<g id="XMLID_1243_">
				<polygon id="XMLID_1245_" class="st5" points="507.27,692.08 503.56,696.25 503.56,692.08 				"/>
				<polygon id="XMLID_1244_" class="st5" points="490.47,692.08 494.19,696.25 494.19,692.08 				"/>
			</g>
			<rect id="XMLID_1242_" x="492.19" y="748.78" class="st5" width="13.37" height="5.49"/>
			<rect id="XMLID_1241_" x="521.95" y="692.08" class="st5" width="9.37" height="56.7"/>
			<g id="XMLID_1238_">
				<polygon id="XMLID_1240_" class="st5" points="535.03,692.08 531.31,696.25 531.31,692.08 				"/>
				<polygon id="XMLID_1239_" class="st5" points="518.23,692.08 521.95,696.25 521.95,692.08 				"/>
			</g>
			<rect id="XMLID_1237_" x="519.95" y="748.78" class="st5" width="13.37" height="5.49"/>
			<rect id="XMLID_1236_" x="549.7" y="692.08" class="st5" width="9.37" height="56.7"/>
			<g id="XMLID_1233_">
				<polygon id="XMLID_1235_" class="st5" points="562.79,692.08 559.07,696.25 559.07,692.08 				"/>
				<polygon id="XMLID_1234_" class="st5" points="545.99,692.08 549.7,696.25 549.7,692.08 				"/>
			</g>
			<rect id="XMLID_1232_" x="547.71" y="748.78" class="st5" width="13.37" height="5.49"/>
			<rect id="XMLID_1231_" x="577.46" y="692.08" class="st5" width="9.37" height="56.7"/>
			<g id="XMLID_1228_">
				<polygon id="XMLID_1230_" class="st5" points="590.55,692.08 586.83,696.25 586.83,692.08 				"/>
				<polygon id="XMLID_1229_" class="st5" points="573.75,692.08 577.46,696.25 577.46,692.08 				"/>
			</g>
			<rect id="XMLID_1227_" x="575.46" y="748.78" class="st5" width="13.37" height="5.49"/>
			<rect id="XMLID_1226_" x="624.84" y="555.83" class="st5" width="30.57" height="18.11"/>
			<path id="XMLID_1225_" class="st5" d="M654.91,558.09c0,8.14-6.6,14.74-14.73,14.74c-8.14,0-14.73-6.6-14.73-14.74
				c0-8.14,6.6-14.74,14.73-14.74C648.32,543.35,654.91,549.95,654.91,558.09z"/>
			<path id="XMLID_1224_" class="st5" d="M637.72,545.06c0,0,0.8-3.72-0.5-6.64c-1.31-2.92-2.72-4.23-4.02-7.55
				c-1.31-3.32-2.51-6.44,1.11-10.57c3.62-4.13,5.13-13.59,5.33-15.8c0.2-2.21,1.11-3.82,2.51-0.8c1.41,3.02,2.51,0.1,3.62-0.3
				c1.11-0.4,0.5,1.31,1.61,3.32s4.83,1.51,3.82,5.53c-1.01,4.03-5.33,2.21-5.23,3.62c0.1,1.41,3.82,4.43,4.73,8.55
				c0.91,4.13-2.21,7.75-3.62,10.97c-1.41,3.22,0.4,11.57,0.4,11.57s-2.72-1.21-2.72-1.51c0-0.3-1.01-6.34-1.31-6.54
				c-0.3-0.2,0.1,6.24,0.1,6.54c0,0.3-1.92-1.21-1.92-1.21v-5.74c0,0-1.3-0.1-1.5,1.01c-0.2,1.11,0,4.43,0,4.43L637.72,545.06z"/>
			<path id="XMLID_1223_" class="st5" d="M640.13,508.6c0,0-7.15,9.39-8.23,10.2c-1.09,0.81-1.6,2.01,0,1.21
				c1.6-0.8,6.02-4.29,6.42-4.83C638.72,514.64,640.13,508.6,640.13,508.6z"/>
			<path id="XMLID_1222_" class="st5" d="M623.23,646.4c-2.21,0.4-24.14,3.22-32.69,31.4h32.69V646.4z"/>
			<path id="XMLID_1221_" class="st5" d="M657.03,646.4c2.21,0.4,24.14,3.22,32.69,31.4h-32.69V646.4z"/>
		</g>
		<g id="XMLID_1173_">
			
				<rect id="XMLID_1219_" x="910.93" y="682.62" transform="matrix(-1 -1.224647e-16 1.224647e-16 -1 1853.2301 1436.8934)" class="st5" width="31.38" height="71.65"/>
			<path id="XMLID_1218_" class="st2" d="M906.44,684.03H948c0.19,0,0.34-0.15,0.34-0.34v-2.14c0-0.19-0.15-0.34-0.34-0.34h-41.56
				c-0.19,0-0.34,0.15-0.34,0.34v2.14C906.1,683.88,906.25,684.03,906.44,684.03z"/>
			<path id="XMLID_1217_" class="st2" d="M906.44,699.43H948c0.19,0,0.34-0.15,0.34-0.34v-2.14c0-0.19-0.15-0.34-0.34-0.34h-41.56
				c-0.19,0-0.34,0.15-0.34,0.34v2.14C906.1,699.28,906.25,699.43,906.44,699.43z"/>
			
				<rect id="XMLID_1216_" x="912.74" y="662.29" transform="matrix(-1 -1.224647e-16 1.224647e-16 -1 1853.2301 1343.5082)" class="st6" width="27.76" height="18.92"/>
			<path id="XMLID_1215_" class="st5" d="M928.72,644.49l12.38,17.81h-27.76l11.3-17.73C925.58,643.09,927.72,643.05,928.72,644.49z
				"/>
			
				<rect id="XMLID_1214_" x="918.3" y="707.18" transform="matrix(-1 -1.224647e-16 1.224647e-16 -1 1853.0962 1446.2855)" class="st2" width="16.49" height="31.93"/>
			
				<rect id="XMLID_1213_" x="891.21" y="692.08" transform="matrix(-1 -1.224647e-16 1.224647e-16 -1 1791.7795 1440.8656)" class="st5" width="9.37" height="56.7"/>
			<g id="XMLID_1210_">
				<polygon id="XMLID_1212_" class="st5" points="887.49,692.08 891.21,696.25 891.21,692.08 				"/>
				<polygon id="XMLID_1211_" class="st5" points="904.29,692.08 900.57,696.25 900.57,692.08 				"/>
			</g>
			
				<rect id="XMLID_1209_" x="889.21" y="748.78" transform="matrix(-1 -1.224647e-16 1.224647e-16 -1 1791.7795 1503.0555)" class="st5" width="13.37" height="5.49"/>
			
				<rect id="XMLID_1208_" x="863.45" y="692.08" transform="matrix(-1 -1.224647e-16 1.224647e-16 -1 1736.2625 1440.8656)" class="st5" width="9.37" height="56.7"/>
			<g id="XMLID_1205_">
				<polygon id="XMLID_1207_" class="st5" points="859.73,692.08 863.45,696.25 863.45,692.08 				"/>
				<polygon id="XMLID_1206_" class="st5" points="876.53,692.08 872.82,696.25 872.82,692.08 				"/>
			</g>
			
				<rect id="XMLID_1204_" x="861.45" y="748.78" transform="matrix(-1 -1.224647e-16 1.224647e-16 -1 1736.2625 1503.0555)" class="st5" width="13.37" height="5.49"/>
			
				<rect id="XMLID_1203_" x="835.69" y="692.08" transform="matrix(-1 -1.224647e-16 1.224647e-16 -1 1680.7452 1440.8656)" class="st5" width="9.37" height="56.7"/>
			<g id="XMLID_1200_">
				<polygon id="XMLID_1202_" class="st5" points="831.97,692.08 835.69,696.25 835.69,692.08 				"/>
				<polygon id="XMLID_1201_" class="st5" points="848.77,692.08 845.06,696.25 845.06,692.08 				"/>
			</g>
			
				<rect id="XMLID_1199_" x="833.69" y="748.78" transform="matrix(-1 -1.224647e-16 1.224647e-16 -1 1680.7452 1503.0555)" class="st5" width="13.37" height="5.49"/>
			
				<rect id="XMLID_1198_" x="807.93" y="692.08" transform="matrix(-1 -1.224647e-16 1.224647e-16 -1 1625.2278 1440.8656)" class="st5" width="9.37" height="56.7"/>
			<g id="XMLID_1195_">
				<polygon id="XMLID_1197_" class="st5" points="804.22,692.08 807.93,696.25 807.93,692.08 				"/>
				<polygon id="XMLID_1196_" class="st5" points="821.01,692.08 817.3,696.25 817.3,692.08 				"/>
			</g>
			
				<rect id="XMLID_1194_" x="805.93" y="748.78" transform="matrix(-1 -1.224647e-16 1.224647e-16 -1 1625.2281 1503.0555)" class="st5" width="13.37" height="5.49"/>
			
				<rect id="XMLID_1193_" x="780.17" y="692.08" transform="matrix(-1 -1.224647e-16 1.224647e-16 -1 1569.7111 1440.8656)" class="st5" width="9.37" height="56.7"/>
			<g id="XMLID_1190_">
				<polygon id="XMLID_1192_" class="st5" points="776.46,692.08 780.17,696.25 780.17,692.08 				"/>
				<polygon id="XMLID_1191_" class="st5" points="793.25,692.08 789.54,696.25 789.54,692.08 				"/>
			</g>
			
				<rect id="XMLID_1189_" x="778.17" y="748.78" transform="matrix(-1 -1.224647e-16 1.224647e-16 -1 1569.7111 1503.0555)" class="st5" width="13.37" height="5.49"/>
			
				<rect id="XMLID_1188_" x="752.41" y="692.08" transform="matrix(-1 -1.224647e-16 1.224647e-16 -1 1514.1936 1440.8656)" class="st5" width="9.37" height="56.7"/>
			<g id="XMLID_1185_">
				<polygon id="XMLID_1187_" class="st5" points="748.7,692.08 752.41,696.25 752.41,692.08 				"/>
				<polygon id="XMLID_1186_" class="st5" points="765.49,692.08 761.78,696.25 761.78,692.08 				"/>
			</g>
			
				<rect id="XMLID_1184_" x="750.41" y="748.78" transform="matrix(-1 -1.224647e-16 1.224647e-16 -1 1514.194 1503.0555)" class="st5" width="13.37" height="5.49"/>
			
				<rect id="XMLID_1183_" x="724.65" y="692.08" transform="matrix(-1 -1.224647e-16 1.224647e-16 -1 1458.6769 1440.8656)" class="st5" width="9.37" height="56.7"/>
			<g id="XMLID_1180_">
				<polygon id="XMLID_1182_" class="st5" points="720.94,692.08 724.65,696.25 724.65,692.08 				"/>
				<polygon id="XMLID_1181_" class="st5" points="737.74,692.08 734.02,696.25 734.02,692.08 				"/>
			</g>
			
				<rect id="XMLID_1179_" x="722.65" y="748.78" transform="matrix(-1 -1.224647e-16 1.224647e-16 -1 1458.6764 1503.0555)" class="st5" width="13.37" height="5.49"/>
			
				<rect id="XMLID_1178_" x="696.9" y="692.08" transform="matrix(-1 -1.224647e-16 1.224647e-16 -1 1403.1593 1440.8656)" class="st5" width="9.37" height="56.7"/>
			<g id="XMLID_1175_">
				<polygon id="XMLID_1177_" class="st5" points="693.18,692.08 696.9,696.25 696.9,692.08 				"/>
				<polygon id="XMLID_1176_" class="st5" points="709.98,692.08 706.26,696.25 706.26,692.08 				"/>
			</g>
			
				<rect id="XMLID_1174_" x="694.9" y="748.78" transform="matrix(-1 -1.224647e-16 1.224647e-16 -1 1403.1597 1503.0555)" class="st5" width="13.37" height="5.49"/>
		</g>
		<rect id="XMLID_1172_" x="590.55" y="689.87" class="st5" width="99.17" height="64.4"/>
		<rect id="XMLID_1171_" x="623.23" y="580.38" class="st5" width="33.79" height="123.57"/>
		<rect id="XMLID_1170_" x="616.19" y="573.94" class="st5" width="49.88" height="6.44"/>
	</g>
	<g id="XMLID_1158_">
		<path id="XMLID_1168_" class="st5" d="M1339.58,194.83h-186.73v581.03h25.06c9.79-30.17,34.65-51.99,68.07-51.99
			s61.74,21.82,71.53,51.99h22.06V194.83z"/>
		<rect id="XMLID_1167_" x="1167.25" y="210.94" class="st2" width="7.78" height="490.35"/>
		<rect id="XMLID_1166_" x="1185.83" y="210.94" class="st2" width="7.78" height="490.35"/>
		<rect id="XMLID_1165_" x="1204.42" y="210.94" class="st2" width="7.78" height="490.35"/>
		<rect id="XMLID_1164_" x="1223.01" y="210.94" class="st2" width="7.78" height="490.35"/>
		<rect id="XMLID_1163_" x="1241.59" y="210.94" class="st2" width="7.78" height="490.35"/>
		<rect id="XMLID_1162_" x="1260.18" y="210.94" class="st2" width="7.78" height="490.35"/>
		<rect id="XMLID_1161_" x="1278.77" y="210.94" class="st2" width="7.78" height="490.35"/>
		<rect id="XMLID_1160_" x="1297.35" y="210.94" class="st2" width="7.78" height="490.35"/>
		<rect id="XMLID_1159_" x="1315.94" y="210.94" class="st2" width="7.78" height="490.35"/>
	</g>
	<g id="XMLID_1131_">
		<rect id="XMLID_1157_" x="1442.9" y="92.33" class="st5" width="29.77" height="670.26"/>
		
			<rect id="XMLID_1156_" x="1514.22" y="50.78" transform="matrix(-1.836970e-16 1 -1 -1.836970e-16 1636.3435 -1421.8879)" class="st5" width="29.79" height="112.89"/>
		<rect id="XMLID_1155_" x="1565.71" y="92.33" class="st5" width="29.77" height="670.26"/>
		<rect id="XMLID_1154_" x="1472.67" y="171.77" class="st2" width="93.04" height="590.82"/>
		<rect id="XMLID_1153_" x="1370.95" y="185.42" class="st2" width="71.95" height="577.16"/>
		<g id="XMLID_1132_">
			<rect id="XMLID_1152_" x="1472.67" y="185.42" class="st5" width="93.04" height="11.17"/>
			<rect id="XMLID_1151_" x="1472.67" y="206.84" class="st5" width="93.04" height="11.17"/>
			<rect id="XMLID_1150_" x="1472.67" y="228.25" class="st5" width="93.04" height="11.17"/>
			<rect id="XMLID_1149_" x="1472.67" y="249.66" class="st5" width="93.04" height="11.17"/>
			<rect id="XMLID_1148_" x="1472.67" y="271.07" class="st5" width="93.04" height="11.17"/>
			<rect id="XMLID_1147_" x="1472.67" y="292.48" class="st5" width="93.04" height="11.17"/>
			<rect id="XMLID_1146_" x="1472.67" y="356.71" class="st5" width="93.04" height="11.17"/>
			<rect id="XMLID_1145_" x="1472.67" y="378.12" class="st5" width="93.04" height="11.17"/>
			<rect id="XMLID_1144_" x="1472.67" y="399.53" class="st5" width="93.04" height="11.17"/>
			<rect id="XMLID_1143_" x="1472.67" y="420.94" class="st5" width="93.04" height="11.17"/>
			<rect id="XMLID_1142_" x="1472.67" y="442.36" class="st5" width="93.04" height="11.17"/>
			<rect id="XMLID_1141_" x="1472.67" y="463.77" class="st5" width="93.04" height="11.17"/>
			<rect id="XMLID_1140_" x="1472.67" y="485.18" class="st5" width="93.04" height="11.17"/>
			<rect id="XMLID_1139_" x="1472.67" y="549.41" class="st5" width="93.04" height="11.17"/>
			<rect id="XMLID_1138_" x="1472.67" y="570.82" class="st5" width="93.04" height="11.17"/>
			<rect id="XMLID_1137_" x="1472.67" y="592.23" class="st5" width="93.04" height="11.17"/>
			<rect id="XMLID_1136_" x="1472.67" y="613.64" class="st5" width="93.04" height="11.17"/>
			<rect id="XMLID_1135_" x="1472.67" y="635.05" class="st5" width="93.04" height="11.17"/>
			<rect id="XMLID_1134_" x="1472.67" y="656.47" class="st5" width="93.04" height="11.17"/>
			<rect id="XMLID_1133_" x="1472.67" y="677.88" class="st5" width="93.04" height="11.17"/>
		</g>
	</g>
	<g id="XMLID_1112_">
		<g id="XMLID_1125_">
			<rect id="XMLID_1130_" x="1004.7" y="699.44" class="st5" width="9.28" height="50.04"/>
			<rect id="XMLID_1129_" x="1026.11" y="699.44" class="st5" width="9.28" height="50.04"/>
			<rect id="XMLID_1128_" x="1004.08" y="690.95" class="st5" width="32.08" height="8.49"/>
			<rect id="XMLID_1127_" x="1003.31" y="681.2" class="st5" width="33.14" height="1.92"/>
			<rect id="XMLID_1126_" x="1004.61" y="683.12" class="st5" width="30.77" height="7.83"/>
		</g>
		<g id="XMLID_1119_">
			<rect id="XMLID_1124_" x="994.35" y="666.8" class="st2" width="15.61" height="85.67"/>
			<rect id="XMLID_1123_" x="1030.36" y="666.8" class="st2" width="15.61" height="85.67"/>
			<rect id="XMLID_1122_" x="993.31" y="652.52" class="st2" width="53.97" height="14.28"/>
			<rect id="XMLID_1121_" x="992.01" y="636.12" class="st2" width="55.75" height="3.24"/>
			<rect id="XMLID_1120_" x="994.2" y="639.35" class="st2" width="51.77" height="13.16"/>
		</g>
		<g id="XMLID_1113_">
			<rect id="XMLID_1118_" x="960.55" y="619.45" class="st5" width="36.27" height="141.55"/>
			<rect id="XMLID_1117_" x="1044.24" y="619.45" class="st5" width="36.27" height="141.55"/>
			<rect id="XMLID_1116_" x="958.13" y="586.27" class="st5" width="125.4" height="33.18"/>
			<rect id="XMLID_1115_" x="955.11" y="548.16" class="st5" width="129.55" height="7.52"/>
			<rect id="XMLID_1114_" x="960.2" y="555.68" class="st5" width="120.31" height="30.59"/>
		</g>
	</g>
	<g id="XMLID_980_">
		<rect id="XMLID_1111_" x="1758.02" y="286.87" class="st5" width="161.98" height="478.19"/>
		<rect id="XMLID_1110_" x="1596.04" y="596.94" class="st5" width="161.98" height="168.12"/>
		<rect id="XMLID_1109_" x="1626.89" y="490.96" class="st5" width="131.13" height="115.41"/>
		<rect id="XMLID_1108_" x="1781.12" y="242.99" class="st5" width="123.42" height="43.87"/>
		<g id="XMLID_1019_">
			<rect id="XMLID_1107_" x="1774.3" y="307.27" class="st2" width="14.57" height="13.71"/>
			<rect id="XMLID_1106_" x="1803.01" y="307.27" class="st2" width="14.57" height="13.71"/>
			<rect id="XMLID_1105_" x="1795.73" y="258.07" class="st2" width="14.57" height="13.71"/>
			<rect id="XMLID_1104_" x="1835.54" y="258.07" class="st2" width="14.57" height="13.71"/>
			<rect id="XMLID_1103_" x="1875.36" y="258.07" class="st2" width="14.57" height="13.71"/>
			<rect id="XMLID_1102_" x="1831.72" y="307.27" class="st2" width="14.57" height="13.71"/>
			<rect id="XMLID_1101_" x="1860.44" y="307.27" class="st2" width="14.57" height="13.71"/>
			<rect id="XMLID_1100_" x="1889.15" y="307.27" class="st2" width="14.57" height="13.71"/>
			<rect id="XMLID_1099_" x="1774.3" y="332.98" class="st2" width="14.57" height="13.71"/>
			<rect id="XMLID_1098_" x="1803.01" y="332.98" class="st2" width="14.57" height="13.71"/>
			<rect id="XMLID_1097_" x="1831.72" y="332.98" class="st2" width="14.57" height="13.71"/>
			<rect id="XMLID_1096_" x="1860.44" y="332.98" class="st2" width="14.57" height="13.71"/>
			<rect id="XMLID_1095_" x="1889.15" y="332.98" class="st2" width="14.57" height="13.71"/>
			<rect id="XMLID_1094_" x="1774.3" y="358.69" class="st2" width="14.57" height="13.71"/>
			<rect id="XMLID_1093_" x="1803.01" y="358.69" class="st2" width="14.57" height="13.71"/>
			<rect id="XMLID_1092_" x="1831.72" y="358.69" class="st2" width="14.57" height="13.71"/>
			<rect id="XMLID_1091_" x="1860.44" y="358.69" class="st2" width="14.57" height="13.71"/>
			<rect id="XMLID_1090_" x="1889.15" y="358.69" class="st2" width="14.57" height="13.71"/>
			<rect id="XMLID_1089_" x="1774.3" y="384.4" class="st2" width="14.57" height="13.71"/>
			<rect id="XMLID_1088_" x="1803.01" y="384.4" class="st2" width="14.57" height="13.71"/>
			<rect id="XMLID_1087_" x="1831.72" y="384.4" class="st2" width="14.57" height="13.71"/>
			<rect id="XMLID_1086_" x="1860.44" y="384.4" class="st2" width="14.57" height="13.71"/>
			<rect id="XMLID_1085_" x="1889.15" y="384.4" class="st2" width="14.57" height="13.71"/>
			<rect id="XMLID_1084_" x="1774.3" y="410.11" class="st2" width="14.57" height="13.71"/>
			<rect id="XMLID_1083_" x="1803.01" y="410.11" class="st2" width="14.57" height="13.71"/>
			<rect id="XMLID_1082_" x="1831.72" y="410.11" class="st2" width="14.57" height="13.71"/>
			<rect id="XMLID_1081_" x="1860.44" y="410.11" class="st2" width="14.57" height="13.71"/>
			<rect id="XMLID_1080_" x="1889.15" y="410.11" class="st2" width="14.57" height="13.71"/>
			<rect id="XMLID_1079_" x="1774.3" y="435.82" class="st2" width="14.57" height="13.71"/>
			<rect id="XMLID_1078_" x="1803.01" y="435.82" class="st2" width="14.57" height="13.71"/>
			<rect id="XMLID_1077_" x="1831.72" y="435.82" class="st2" width="14.57" height="13.71"/>
			<rect id="XMLID_1076_" x="1860.44" y="435.82" class="st2" width="14.57" height="13.71"/>
			<rect id="XMLID_1075_" x="1889.15" y="435.82" class="st2" width="14.57" height="13.71"/>
			<rect id="XMLID_1074_" x="1774.3" y="461.53" class="st2" width="14.57" height="13.71"/>
			<rect id="XMLID_1073_" x="1803.01" y="461.53" class="st2" width="14.57" height="13.71"/>
			<rect id="XMLID_1072_" x="1831.72" y="461.53" class="st2" width="14.57" height="13.71"/>
			<rect id="XMLID_1071_" x="1860.44" y="461.53" class="st2" width="14.57" height="13.71"/>
			<rect id="XMLID_1070_" x="1889.15" y="461.53" class="st2" width="14.57" height="13.71"/>
			<rect id="XMLID_1069_" x="1774.3" y="487.24" class="st2" width="14.57" height="13.71"/>
			<rect id="XMLID_1068_" x="1803.01" y="487.24" class="st2" width="14.57" height="13.71"/>
			<rect id="XMLID_1067_" x="1831.72" y="487.24" class="st2" width="14.57" height="13.71"/>
			<rect id="XMLID_1066_" x="1860.44" y="487.24" class="st2" width="14.57" height="13.71"/>
			<rect id="XMLID_1065_" x="1889.15" y="487.24" class="st2" width="14.57" height="13.71"/>
			<rect id="XMLID_1064_" x="1774.3" y="512.95" class="st2" width="14.57" height="13.71"/>
			<rect id="XMLID_1063_" x="1803.01" y="512.95" class="st2" width="14.57" height="13.71"/>
			<rect id="XMLID_1062_" x="1831.72" y="512.95" class="st2" width="14.57" height="13.71"/>
			<rect id="XMLID_1061_" x="1860.44" y="512.95" class="st2" width="14.57" height="13.71"/>
			<rect id="XMLID_1060_" x="1889.15" y="512.95" class="st2" width="14.57" height="13.71"/>
			<rect id="XMLID_1059_" x="1774.3" y="538.66" class="st2" width="14.57" height="13.71"/>
			<rect id="XMLID_1058_" x="1803.01" y="538.66" class="st2" width="14.57" height="13.71"/>
			<rect id="XMLID_1057_" x="1831.72" y="538.66" class="st2" width="14.57" height="13.71"/>
			<rect id="XMLID_1056_" x="1860.44" y="538.66" class="st2" width="14.57" height="13.71"/>
			<rect id="XMLID_1055_" x="1889.15" y="538.66" class="st2" width="14.57" height="13.71"/>
			<rect id="XMLID_1054_" x="1774.3" y="564.37" class="st2" width="14.57" height="13.71"/>
			<rect id="XMLID_1053_" x="1803.01" y="564.37" class="st2" width="14.57" height="13.71"/>
			<rect id="XMLID_1052_" x="1831.72" y="564.37" class="st2" width="14.57" height="13.71"/>
			<rect id="XMLID_1051_" x="1860.44" y="564.37" class="st2" width="14.57" height="13.71"/>
			<rect id="XMLID_1050_" x="1889.15" y="564.37" class="st2" width="14.57" height="13.71"/>
			<rect id="XMLID_1049_" x="1774.3" y="590.08" class="st2" width="14.57" height="13.71"/>
			<rect id="XMLID_1048_" x="1803.01" y="590.08" class="st2" width="14.57" height="13.71"/>
			<rect id="XMLID_1047_" x="1831.72" y="590.08" class="st2" width="14.57" height="13.71"/>
			<rect id="XMLID_1046_" x="1860.44" y="590.08" class="st2" width="14.57" height="13.71"/>
			<rect id="XMLID_1045_" x="1889.15" y="590.08" class="st2" width="14.57" height="13.71"/>
			<rect id="XMLID_1044_" x="1774.3" y="615.8" class="st2" width="14.57" height="13.71"/>
			<rect id="XMLID_1043_" x="1803.01" y="615.8" class="st2" width="14.57" height="13.71"/>
			<rect id="XMLID_1042_" x="1831.72" y="615.8" class="st2" width="14.57" height="13.71"/>
			<rect id="XMLID_1041_" x="1860.44" y="615.8" class="st2" width="14.57" height="13.71"/>
			<rect id="XMLID_1040_" x="1889.15" y="615.8" class="st2" width="14.57" height="13.71"/>
			<rect id="XMLID_1039_" x="1774.3" y="641.51" class="st2" width="14.57" height="13.71"/>
			<rect id="XMLID_1038_" x="1803.01" y="641.51" class="st2" width="14.57" height="13.71"/>
			<rect id="XMLID_1037_" x="1831.72" y="641.51" class="st2" width="14.57" height="13.71"/>
			<rect id="XMLID_1036_" x="1860.44" y="641.51" class="st2" width="14.57" height="13.71"/>
			<rect id="XMLID_1035_" x="1889.15" y="641.51" class="st2" width="14.57" height="13.71"/>
			<rect id="XMLID_1034_" x="1774.3" y="667.22" class="st2" width="14.57" height="13.71"/>
			<rect id="XMLID_1033_" x="1803.01" y="667.22" class="st2" width="14.57" height="13.71"/>
			<rect id="XMLID_1032_" x="1831.72" y="667.22" class="st2" width="14.57" height="13.71"/>
			<rect id="XMLID_1031_" x="1860.44" y="667.22" class="st2" width="14.57" height="13.71"/>
			<rect id="XMLID_1030_" x="1889.15" y="667.22" class="st2" width="14.57" height="13.71"/>
			<rect id="XMLID_1029_" x="1774.3" y="692.93" class="st2" width="14.57" height="13.71"/>
			<rect id="XMLID_1028_" x="1803.01" y="692.93" class="st2" width="14.57" height="13.71"/>
			<rect id="XMLID_1027_" x="1831.72" y="692.93" class="st2" width="14.57" height="13.71"/>
			<rect id="XMLID_1026_" x="1860.44" y="692.93" class="st2" width="14.57" height="13.71"/>
			<rect id="XMLID_1025_" x="1889.15" y="692.93" class="st2" width="14.57" height="13.71"/>
			<rect id="XMLID_1024_" x="1774.3" y="718.64" class="st2" width="14.57" height="13.71"/>
			<rect id="XMLID_1023_" x="1803.01" y="718.64" class="st2" width="14.57" height="13.71"/>
			<rect id="XMLID_1022_" x="1831.72" y="718.64" class="st2" width="14.57" height="13.71"/>
			<rect id="XMLID_1021_" x="1860.44" y="718.64" class="st2" width="14.57" height="13.71"/>
			<rect id="XMLID_1020_" x="1889.15" y="718.64" class="st2" width="14.57" height="13.71"/>
		</g>
		<g id="XMLID_981_">
			<rect id="XMLID_1018_" x="1612.32" y="615.8" class="st2" width="14.57" height="13.71"/>
			<rect id="XMLID_1017_" x="1641.03" y="615.8" class="st2" width="14.57" height="13.71"/>
			<rect id="XMLID_1016_" x="1669.74" y="615.8" class="st2" width="14.57" height="13.71"/>
			<rect id="XMLID_1015_" x="1698.46" y="615.8" class="st2" width="14.57" height="13.71"/>
			<rect id="XMLID_1014_" x="1727.17" y="615.8" class="st2" width="14.57" height="13.71"/>
			<rect id="XMLID_1013_" x="1612.32" y="641.51" class="st2" width="14.57" height="13.71"/>
			<rect id="XMLID_1012_" x="1641.03" y="641.51" class="st2" width="14.57" height="13.71"/>
			<rect id="XMLID_1011_" x="1669.74" y="641.51" class="st2" width="14.57" height="13.71"/>
			<rect id="XMLID_1010_" x="1698.46" y="641.51" class="st2" width="14.57" height="13.71"/>
			<rect id="XMLID_1009_" x="1727.17" y="641.51" class="st2" width="14.57" height="13.71"/>
			<rect id="XMLID_1008_" x="1612.32" y="667.22" class="st2" width="14.57" height="13.71"/>
			<rect id="XMLID_1007_" x="1641.03" y="667.22" class="st2" width="14.57" height="13.71"/>
			<rect id="XMLID_1006_" x="1669.74" y="667.22" class="st2" width="14.57" height="13.71"/>
			<rect id="XMLID_1005_" x="1698.46" y="667.22" class="st2" width="14.57" height="13.71"/>
			<rect id="XMLID_1004_" x="1727.17" y="667.22" class="st2" width="14.57" height="13.71"/>
			<rect id="XMLID_1003_" x="1641.03" y="519.81" class="st2" width="14.57" height="13.71"/>
			<rect id="XMLID_1002_" x="1669.74" y="519.81" class="st2" width="14.57" height="13.71"/>
			<rect id="XMLID_1001_" x="1698.46" y="519.81" class="st2" width="14.57" height="13.71"/>
			<rect id="XMLID_1000_" x="1727.17" y="519.81" class="st2" width="14.57" height="13.71"/>
			<rect id="XMLID_999_" x="1641.03" y="545.52" class="st2" width="14.57" height="13.71"/>
			<rect id="XMLID_998_" x="1669.74" y="545.52" class="st2" width="14.57" height="13.71"/>
			<rect id="XMLID_997_" x="1698.46" y="545.52" class="st2" width="14.57" height="13.71"/>
			<rect id="XMLID_996_" x="1727.17" y="545.52" class="st2" width="14.57" height="13.71"/>
			<rect id="XMLID_995_" x="1641.03" y="571.23" class="st2" width="14.57" height="13.71"/>
			<rect id="XMLID_994_" x="1669.74" y="571.23" class="st2" width="14.57" height="13.71"/>
			<rect id="XMLID_993_" x="1698.46" y="571.23" class="st2" width="14.57" height="13.71"/>
			<rect id="XMLID_992_" x="1727.17" y="571.23" class="st2" width="14.57" height="13.71"/>
			<rect id="XMLID_991_" x="1612.32" y="692.93" class="st2" width="14.57" height="13.71"/>
			<rect id="XMLID_990_" x="1641.03" y="692.93" class="st2" width="14.57" height="13.71"/>
			<rect id="XMLID_989_" x="1669.74" y="692.93" class="st2" width="14.57" height="13.71"/>
			<rect id="XMLID_988_" x="1698.46" y="692.93" class="st2" width="14.57" height="13.71"/>
			<rect id="XMLID_987_" x="1727.17" y="692.93" class="st2" width="14.57" height="13.71"/>
			<rect id="XMLID_986_" x="1612.32" y="718.64" class="st2" width="14.57" height="13.71"/>
			<rect id="XMLID_985_" x="1641.03" y="718.64" class="st2" width="14.57" height="13.71"/>
			<rect id="XMLID_984_" x="1669.74" y="718.64" class="st2" width="14.57" height="13.71"/>
			<rect id="XMLID_983_" x="1698.46" y="718.64" class="st2" width="14.57" height="13.71"/>
			<rect id="XMLID_982_" x="1727.17" y="718.64" class="st2" width="14.57" height="13.71"/>
		</g>
	</g>
	<g id="XMLID_974_">
		<polyline id="XMLID_979_" class="st5" points="0,810 0,286.92 140.23,286.92 140.23,749.15 1920,753.65 1920,810 		"/>
		<rect id="XMLID_978_" x="13.45" y="261.94" class="st5" width="113.33" height="24.99"/>
		<rect id="XMLID_977_" x="26.73" y="205.24" class="st5" width="86.76" height="56.7"/>
		<polygon id="XMLID_976_" class="st5" points="46.94,209.08 46.94,180.25 71.67,154.54 93.28,181.81 93.28,205.24 		"/>
		<path id="XMLID_975_" class="st5" d="M71.28,170.64h-2.33c-0.2,0-0.36-0.16-0.36-0.36V90.28c0-0.2,0.16-0.36,0.36-0.36h2.33
			c0.2,0,0.36,0.16,0.36,0.36v80.01C71.63,170.48,71.47,170.64,71.28,170.64z"/>
	</g>
</g>
</svg>
