<svg id="Capa_1" data-name="Capa 1" xmlns="http://www.w3.org/2000/svg" viewBox="0 0 371 291"><defs><style>.cls-1{fill:#fff;}</style></defs><polygon class="cls-1" points="252.41 66.2 171.29 165.33 117.1 97.51 171.29 140.07 252.41 66.2"/><polygon class="cls-1" points="90.18 161.92 171.29 62.79 225.48 130.61 171.29 88.05 90.18 161.92"/><rect class="cls-1" x="162.12" y="104.62" width="6.56" height="6.56"/><rect class="cls-1" x="173.87" y="104.62" width="6.56" height="6.56"/><rect class="cls-1" x="162.12" y="116.41" width="6.56" height="6.56"/><rect class="cls-1" x="173.87" y="116.41" width="6.56" height="6.56"/><path class="cls-1" d="M45.9,210.12V188.55H50l9.18,15.23H57l9-15.23h4.16v21.57H65.53l-.07-14.39h.93l-7.27,12.08H56.9l-7.37-12.08h1v14.39Z"/><path class="cls-1" d="M77.08,216.35a8.61,8.61,0,0,1-2.53-.4,6,6,0,0,1-2.09-1.11l1.76-3.45a3.91,3.91,0,0,0,1.27.8,4.25,4.25,0,0,0,1.47.28,2.47,2.47,0,0,0,1.59-.48,4.19,4.19,0,0,0,1.09-1.59l.86-2,.37-.53,6-14.3h4.59L84,211.14a10,10,0,0,1-1.83,3.16,5.92,5.92,0,0,1-2.28,1.59A8.07,8.07,0,0,1,77.08,216.35Zm2.84-5.58-7.37-17.23h4.93l5.77,13.9Z"/><path class="cls-1" d="M104,210.49a13,13,0,0,1-4.63-.81,10.79,10.79,0,0,1-6.17-5.87,11.79,11.79,0,0,1,0-8.94,10.61,10.61,0,0,1,2.47-3.54A11,11,0,0,1,99.35,189a13.67,13.67,0,0,1,9.72.15,9.93,9.93,0,0,1,3.82,2.85l-3.24,3a7.19,7.19,0,0,0-2.45-1.91,6.86,6.86,0,0,0-3-.64,7.3,7.3,0,0,0-2.77.5,6.42,6.42,0,0,0-2.19,1.44,6.36,6.36,0,0,0-1.43,2.18,7.48,7.48,0,0,0-.51,2.81,7.39,7.39,0,0,0,.51,2.8,6.36,6.36,0,0,0,3.62,3.62,7.3,7.3,0,0,0,2.77.51,6.73,6.73,0,0,0,3-.66,7.25,7.25,0,0,0,2.45-1.93l3.24,3a10,10,0,0,1-3.82,2.87A12.74,12.74,0,0,1,104,210.49Z"/><path class="cls-1" d="M118.28,191.23a3.08,3.08,0,0,1-2.19-.77,2.61,2.61,0,0,1,0-3.82,3.13,3.13,0,0,1,2.19-.77,3.21,3.21,0,0,1,2.18.73,2.34,2.34,0,0,1,.84,1.86,2.61,2.61,0,0,1-.83,2A3.06,3.06,0,0,1,118.28,191.23Zm-2.4,18.89V193.54h4.81v16.58Z"/><path class="cls-1" d="M123.18,197.61v-3.69h11.5v3.69Zm8.75,12.76a6.54,6.54,0,0,1-4.56-1.49,5.74,5.74,0,0,1-1.63-4.46V189.88h4.84v14.45a2.31,2.31,0,0,0,.54,1.63,1.88,1.88,0,0,0,1.46.59,3.13,3.13,0,0,0,2-.62l1.27,3.39a5.16,5.16,0,0,1-1.74.79A9,9,0,0,1,131.93,210.37Z"/><path class="cls-1" d="M140.35,216.35a8.51,8.51,0,0,1-2.53-.4,6.16,6.16,0,0,1-2.1-1.11l1.76-3.45a4,4,0,0,0,1.28.8,4.16,4.16,0,0,0,1.46.28,2.47,2.47,0,0,0,1.59-.48,4.08,4.08,0,0,0,1.09-1.59l.87-2,.37-.53,6-14.3h4.59l-7.49,17.6a10.2,10.2,0,0,1-1.84,3.16,5.77,5.77,0,0,1-2.28,1.59A8.05,8.05,0,0,1,140.35,216.35Zm2.83-5.58-7.36-17.23h4.93l5.76,13.9Z"/><path class="cls-1" d="M162,210.12h-5V188.55h5Zm10.14-8.84H161.64v-4.22h10.54Zm-.37-12.73h5v21.57h-5Z"/><path class="cls-1" d="M189.44,210.37a9.62,9.62,0,0,1-4.67-1.11,8.62,8.62,0,0,1-3.22-11.85,8.22,8.22,0,0,1,3.22-3,9.73,9.73,0,0,1,4.67-1.09,9.92,9.92,0,0,1,4.71,1.09,8.21,8.21,0,0,1,3.24,3,8.36,8.36,0,0,1,1.17,4.42,8.12,8.12,0,0,1-4.41,7.43A9.81,9.81,0,0,1,189.44,210.37Zm0-3.94a4.29,4.29,0,0,0,2.17-.54,3.93,3.93,0,0,0,1.51-1.59,5.09,5.09,0,0,0,.57-2.47,5,5,0,0,0-.57-2.46,4,4,0,0,0-1.51-1.56,4.23,4.23,0,0,0-2.14-.54,4.33,4.33,0,0,0-2.16.54,4,4,0,0,0-1.53,1.56,5,5,0,0,0-.57,2.46,5.09,5.09,0,0,0,.57,2.47,3.91,3.91,0,0,0,1.53,1.59A4.27,4.27,0,0,0,189.44,206.43Z"/><path class="cls-1" d="M223,193.3a7.54,7.54,0,0,1,3.49.78,5.56,5.56,0,0,1,2.39,2.41,8.71,8.71,0,0,1,.86,4.14v9.49h-4.8v-8.75a4.53,4.53,0,0,0-.82-3,2.87,2.87,0,0,0-2.3-.95,3.76,3.76,0,0,0-1.91.48,3.14,3.14,0,0,0-1.28,1.41,5.9,5.9,0,0,0-.44,2.45v8.32h-4.81v-8.75a4.47,4.47,0,0,0-.82-3,2.94,2.94,0,0,0-2.35-.95,3.68,3.68,0,0,0-1.88.48,3.18,3.18,0,0,0-1.3,1.41,5.58,5.58,0,0,0-.46,2.45v8.32h-4.81V193.54h4.59V198l-.86-1.29a5.73,5.73,0,0,1,2.44-2.57,7.3,7.3,0,0,1,3.6-.88,7,7,0,0,1,4,1.15,5.57,5.57,0,0,1,2.28,3.53l-1.7-.46a6.85,6.85,0,0,1,2.65-3.07A7.71,7.71,0,0,1,223,193.3Z"/><path class="cls-1" d="M242.44,210.37a10.55,10.55,0,0,1-5-1.11,8.21,8.21,0,0,1-3.3-3,8.32,8.32,0,0,1-1.17-4.4,8.6,8.6,0,0,1,1.12-4.4,7.88,7.88,0,0,1,3.15-3,9.35,9.35,0,0,1,4.54-1.09,9.1,9.1,0,0,1,4.39,1,7.79,7.79,0,0,1,3.1,3,8.84,8.84,0,0,1,1.14,4.6q0,.27,0,.63c0,.23,0,.46-.06.66H236.89v-2.8h10.94l-1.88.83a4.4,4.4,0,0,0-.49-2.25,3.81,3.81,0,0,0-1.45-1.5,4.3,4.3,0,0,0-2.16-.54,4.39,4.39,0,0,0-2.17.54,3.79,3.79,0,0,0-1.46,1.51,4.79,4.79,0,0,0-.53,2.3V202a4.54,4.54,0,0,0,.62,2.4A4.1,4.1,0,0,0,240,206a5.76,5.76,0,0,0,2.59.54,6.29,6.29,0,0,0,2.3-.4,5.69,5.69,0,0,0,1.83-1.2l2.56,2.77a7.59,7.59,0,0,1-2.87,2A10.62,10.62,0,0,1,242.44,210.37Z"/><path class="cls-1" d="M255.47,210.37a2.92,2.92,0,0,1-2.11-.85,2.86,2.86,0,0,1-.87-2.14,2.91,2.91,0,0,1,.87-2.19,3,3,0,0,1,2.11-.83,3,3,0,0,1,2.13.83,2.9,2.9,0,0,1,.86,2.19,2.85,2.85,0,0,1-.86,2.14A2.89,2.89,0,0,1,255.47,210.37Z"/><path class="cls-1" d="M269.74,210.37a10.58,10.58,0,0,1-5-1.11,8.21,8.21,0,0,1-3.3-3,8.32,8.32,0,0,1-1.17-4.4,8.6,8.6,0,0,1,1.13-4.4,7.86,7.86,0,0,1,3.14-3,9.35,9.35,0,0,1,4.54-1.09,9.17,9.17,0,0,1,4.4,1,7.83,7.83,0,0,1,3.09,3,8.84,8.84,0,0,1,1.14,4.6q0,.27,0,.63c0,.23,0,.46-.06.66H264.19v-2.8h10.94l-1.88.83a4.4,4.4,0,0,0-.49-2.25,3.81,3.81,0,0,0-1.45-1.5,4.26,4.26,0,0,0-2.15-.54,4.4,4.4,0,0,0-2.18.54,3.86,3.86,0,0,0-1.46,1.51,4.79,4.79,0,0,0-.52,2.3V202a4.53,4.53,0,0,0,.61,2.4,4.07,4.07,0,0,0,1.7,1.56,5.73,5.73,0,0,0,2.59.54,6.28,6.28,0,0,0,2.29-.4,5.84,5.84,0,0,0,1.84-1.2l2.55,2.77a7.55,7.55,0,0,1-2.86,2A10.67,10.67,0,0,1,269.74,210.37Z"/><path class="cls-1" d="M286.54,210.37a15.93,15.93,0,0,1-4.07-.51,10.33,10.33,0,0,1-3.11-1.28l1.57-3.42a11.89,11.89,0,0,0,2.72,1.13,11,11,0,0,0,3.07.44,5,5,0,0,0,2.36-.4,1.22,1.22,0,0,0,.69-1.11.93.93,0,0,0-.54-.87,4.48,4.48,0,0,0-1.42-.45c-.58-.1-1.23-.21-1.95-.31a19.3,19.3,0,0,1-2.14-.43,8.62,8.62,0,0,1-2-.79,3.72,3.72,0,0,1-1.44-1.4,4.39,4.39,0,0,1-.54-2.31,4.46,4.46,0,0,1,.92-2.79A6,6,0,0,1,283.3,194a10.9,10.9,0,0,1,4.1-.68,16.53,16.53,0,0,1,3.47.38,10.5,10.5,0,0,1,2.94,1.07l-1.64,3.42a8.74,8.74,0,0,0-2.38-1,10.87,10.87,0,0,0-2.33-.28,4.93,4.93,0,0,0-2.4.44,1.24,1.24,0,0,0-.74,1.11,1,1,0,0,0,.55.94,4.41,4.41,0,0,0,1.45.47c.6.11,1.25.21,2,.31a19.12,19.12,0,0,1,2.13.43,8.65,8.65,0,0,1,2,.79,3.87,3.87,0,0,1,1.44,1.4,4.44,4.44,0,0,1,.54,2.31,4.3,4.3,0,0,1-.92,2.7,6.1,6.1,0,0,1-2.67,1.86A11.72,11.72,0,0,1,286.54,210.37Z"/><polygon class="cls-1" points="216.13 220.02 220.48 220.02 222.15 215.28 224.1 220.02 228.53 220.02 224.7 222.54 226.28 227.22 222.33 224.43 218.14 227.22 219.56 222.6 216.13 220.02"/><polygon class="cls-1" points="232.5 220.02 236.85 220.02 238.52 215.28 240.47 220.02 244.89 220.02 241.06 222.54 242.65 227.22 238.69 224.43 234.5 227.22 235.92 222.6 232.5 220.02"/><polygon class="cls-1" points="249.1 220.02 253.45 220.02 255.12 215.28 257.07 220.02 261.49 220.02 257.67 222.54 259.25 227.22 255.3 224.43 251.11 227.22 252.52 222.6 249.1 220.02"/><polygon class="cls-1" points="265.52 220.02 269.87 220.02 271.54 215.28 273.48 220.02 277.91 220.02 274.08 222.54 275.67 227.22 271.71 224.43 267.52 227.22 268.94 222.6 265.52 220.02"/><polygon class="cls-1" points="281.97 220.02 286.32 220.02 287.99 215.28 289.94 220.02 294.36 220.02 290.54 222.54 292.12 227.22 288.17 224.43 283.98 227.22 285.39 222.6 281.97 220.02"/></svg>