<svg id="Capa_1" data-name="Capa 1" xmlns="http://www.w3.org/2000/svg" xmlns:xlink="http://www.w3.org/1999/xlink" viewBox="0 0 1280 800"><defs><style>.cls-1{fill:none;}.cls-2,.cls-5{fill:#0077bd;}.cls-2{opacity:0.27;}.cls-3{fill:#2e8ccc;}.cls-4{clip-path:url(#clip-path);}.cls-6{clip-path:url(#clip-path-2);}.cls-7{fill:#1d71b8;}</style><clipPath id="clip-path"><polygon class="cls-1" points="77.22 760.39 108.29 641.86 158.78 641.86 127.71 760.39 77.22 760.39"/></clipPath><clipPath id="clip-path-2"><polygon class="cls-1" points="250.92 760.39 219.85 641.86 169.36 641.86 200.43 760.39 250.92 760.39"/></clipPath></defs><rect class="cls-2" width="1280" height="800"/><polygon class="cls-3" points="77.22 760.39 108.29 641.86 158.78 641.86 127.71 760.39 77.22 760.39"/><g class="cls-4"><rect class="cls-5" x="101.12" y="658.11" width="55.48" height="3.99"/><rect class="cls-5" x="93.44" y="688.66" width="55.48" height="3.99"/><rect class="cls-5" x="85.77" y="719.22" width="55.48" height="3.99"/></g><polygon class="cls-3" points="250.92 760.39 219.85 641.86 169.36 641.86 200.43 760.39 250.92 760.39"/><g class="cls-6"><rect class="cls-5" x="171.54" y="658.11" width="55.48" height="3.99" transform="translate(398.57 1320.2) rotate(180)"/><rect class="cls-5" x="179.22" y="688.66" width="55.48" height="3.99" transform="translate(413.92 1381.32) rotate(180)"/><rect class="cls-5" x="186.89" y="719.22" width="55.48" height="3.99" transform="translate(429.27 1442.43) rotate(180)"/></g><polygon class="cls-5" points="730.98 761.26 738.28 571.11 745.59 571.11 751.78 761.26 730.98 761.26"/><rect class="cls-5" x="723.1" y="559.86" width="37.3" height="7.88"/><polygon class="cls-5" points="738.28 571.11 723.1 567.73 760.4 567.73 745.59 571.11 738.28 571.11"/><rect class="cls-5" x="718.23" y="545.79" width="46.1" height="14.06" rx="0.77"/><path class="cls-5" d="M731,497.13l-5.13,48.66h30.93l-6.31-48.71a1.78,1.78,0,0,0-1.76-1.54h-16A1.78,1.78,0,0,0,731,497.13Z"/><path class="cls-5" d="M735.1,498.35l4.45-75.11a1.32,1.32,0,0,1,2.15,0l4.46,72.3Z"/><rect class="cls-5" x="246.93" y="711.86" width="368.51" height="9.53"/><rect class="cls-5" x="227.61" y="715.08" width="20.92" height="47.77"/><rect class="cls-3" x="223.59" y="714.14" width="28.16" height="1.88" rx="0.34"/><rect class="cls-3" x="223.59" y="724.41" width="28.16" height="1.88" rx="0.34"/><rect class="cls-5" x="228.82" y="701.53" width="18.51" height="12.61"/><path class="cls-5" d="M236.67,689.66l-8.25,11.87h18.51l-7.54-11.82A1.64,1.64,0,0,0,236.67,689.66Z"/><rect class="cls-3" x="232.62" y="731.45" width="11" height="21.29"/><rect class="cls-3" x="421.25" y="666.82" width="11" height="21.29"/><rect class="cls-5" x="255.44" y="721.39" width="6.25" height="37.8"/><polygon class="cls-5" points="264.16 721.39 261.68 724.17 261.68 721.39 264.16 721.39"/><polygon class="cls-5" points="252.96 721.39 255.44 724.17 255.44 721.39 252.96 721.39"/><rect class="cls-5" x="254.1" y="759.19" width="8.91" height="3.66"/><rect class="cls-5" x="273.94" y="721.39" width="6.25" height="37.8"/><polygon class="cls-5" points="282.66 721.39 280.19 724.17 280.19 721.39 282.66 721.39"/><polygon class="cls-5" points="271.47 721.39 273.94 724.17 273.94 721.39 271.47 721.39"/><rect class="cls-5" x="272.61" y="759.19" width="8.91" height="3.66"/><rect class="cls-5" x="292.45" y="721.39" width="6.25" height="37.8"/><polygon class="cls-5" points="301.17 721.39 298.69 724.17 298.69 721.39 301.17 721.39"/><polygon class="cls-5" points="289.97 721.39 292.45 724.17 292.45 721.39 289.97 721.39"/><rect class="cls-5" x="291.11" y="759.19" width="8.91" height="3.66"/><rect class="cls-5" x="310.95" y="721.39" width="6.25" height="37.8"/><polygon class="cls-5" points="319.67 721.39 317.2 724.17 317.2 721.39 319.67 721.39"/><polygon class="cls-5" points="308.48 721.39 310.95 724.17 310.95 721.39 308.48 721.39"/><rect class="cls-5" x="309.62" y="759.19" width="8.91" height="3.66"/><rect class="cls-5" x="329.46" y="721.39" width="6.25" height="37.8"/><polygon class="cls-5" points="338.18 721.39 335.7 724.17 335.7 721.39 338.18 721.39"/><polygon class="cls-5" points="326.98 721.39 329.46 724.17 329.46 721.39 326.98 721.39"/><rect class="cls-5" x="328.13" y="759.19" width="8.91" height="3.66"/><rect class="cls-5" x="347.96" y="721.39" width="6.25" height="37.8"/><polygon class="cls-5" points="356.69 721.39 354.21 724.17 354.21 721.39 356.69 721.39"/><polygon class="cls-5" points="345.49 721.39 347.96 724.17 347.96 721.39 345.49 721.39"/><rect class="cls-5" x="346.63" y="759.19" width="8.91" height="3.66"/><rect class="cls-5" x="366.47" y="721.39" width="6.25" height="37.8"/><polygon class="cls-5" points="375.19 721.39 372.72 724.17 372.72 721.39 375.19 721.39"/><polygon class="cls-5" points="363.99 721.39 366.47 724.17 366.47 721.39 363.99 721.39"/><rect class="cls-5" x="365.14" y="759.19" width="8.91" height="3.66"/><rect class="cls-5" x="384.98" y="721.39" width="6.25" height="37.8"/><polygon class="cls-5" points="393.7 721.39 391.22 724.17 391.22 721.39 393.7 721.39"/><polygon class="cls-5" points="382.5 721.39 384.98 724.17 384.98 721.39 382.5 721.39"/><rect class="cls-5" x="383.64" y="759.19" width="8.91" height="3.66"/><rect class="cls-5" x="416.56" y="630.55" width="20.38" height="12.08"/><path class="cls-5" d="M436.61,632.06a9.83,9.83,0,1,1-9.82-9.83A9.83,9.83,0,0,1,436.61,632.06Z"/><path class="cls-5" d="M425.14,623.37a8.19,8.19,0,0,0-.33-4.42c-.87-2-1.81-2.82-2.68-5s-1.68-4.29.73-7,3.42-9.06,3.56-10.53.73-2.55,1.67-.54,1.68.07,2.42-.2.33.87,1.07,2.21,3.22,1,2.55,3.69-3.56,1.48-3.49,2.42,2.55,3,3.15,5.7-1.47,5.17-2.41,7.31.27,7.72.27,7.72-1.81-.81-1.81-1a31.73,31.73,0,0,0-.87-4.36c-.21-.13.06,4.16.06,4.36s-1.28-.8-1.28-.8V619s-.86-.06-1,.67a21.7,21.7,0,0,0,0,3Z"/><path class="cls-5" d="M426.75,599.07s-4.76,6.26-5.49,6.79-1.06,1.35,0,.81a28.27,28.27,0,0,0,4.29-3.22A44,44,0,0,0,426.75,599.07Z"/><path class="cls-5" d="M415.49,690.93c-1.48.27-16.09,2.15-21.79,20.93h21.79Z"/><path class="cls-5" d="M438,690.93c1.47.27,16.09,2.15,21.79,20.93H438Z"/><rect class="cls-5" x="607.28" y="715.08" width="20.92" height="47.77" transform="translate(1235.49 1477.93) rotate(180)"/><rect class="cls-3" x="604.07" y="714.14" width="28.16" height="1.88" rx="0.34" transform="translate(1236.29 1430.16) rotate(180)"/><rect class="cls-3" x="604.07" y="724.41" width="28.16" height="1.88" rx="0.34" transform="translate(1236.29 1450.69) rotate(-180)"/><rect class="cls-7" x="608.49" y="701.53" width="18.51" height="12.61" transform="translate(1235.49 1415.67) rotate(180)"/><path class="cls-5" d="M619.14,689.66l8.26,11.87H608.89l7.54-11.82A1.63,1.63,0,0,1,619.14,689.66Z"/><rect class="cls-3" x="612.2" y="731.45" width="11" height="21.29" transform="translate(1235.4 1484.19) rotate(180)"/><rect class="cls-5" x="594.14" y="721.39" width="6.25" height="37.8" transform="translate(1194.52 1480.58) rotate(180)"/><polygon class="cls-5" points="591.66 721.39 594.14 724.17 594.14 721.39 591.66 721.39"/><polygon class="cls-5" points="602.86 721.39 600.38 724.17 600.38 721.39 602.86 721.39"/><rect class="cls-5" x="592.8" y="759.19" width="8.91" height="3.66" transform="translate(1194.52 1522.04) rotate(180)"/><rect class="cls-5" x="575.63" y="721.39" width="6.25" height="37.8" transform="translate(1157.51 1480.58) rotate(180)"/><polygon class="cls-5" points="573.16 721.39 575.63 724.17 575.63 721.39 573.16 721.39"/><polygon class="cls-5" points="584.35 721.39 581.88 724.17 581.88 721.39 584.35 721.39"/><rect class="cls-5" x="574.3" y="759.19" width="8.91" height="3.66" transform="translate(1157.51 1522.04) rotate(180)"/><rect class="cls-5" x="557.13" y="721.39" width="6.25" height="37.8" transform="translate(1120.5 1480.58) rotate(180)"/><polygon class="cls-5" points="554.65 721.39 557.13 724.17 557.13 721.39 554.65 721.39"/><polygon class="cls-5" points="565.85 721.39 563.37 724.17 563.37 721.39 565.85 721.39"/><rect class="cls-5" x="555.79" y="759.19" width="8.91" height="3.66" transform="translate(1120.5 1522.04) rotate(180)"/><rect class="cls-5" x="538.62" y="721.39" width="6.25" height="37.8" transform="translate(1083.49 1480.58) rotate(180)"/><polygon class="cls-5" points="536.14 721.39 538.62 724.17 538.62 721.39 536.14 721.39"/><polygon class="cls-5" points="547.34 721.39 544.87 724.17 544.87 721.39 547.34 721.39"/><rect class="cls-5" x="537.29" y="759.19" width="8.91" height="3.66" transform="translate(1083.49 1522.04) rotate(180)"/><rect class="cls-5" x="520.11" y="721.39" width="6.25" height="37.8" transform="translate(1046.47 1480.58) rotate(180)"/><polygon class="cls-5" points="517.64 721.39 520.11 724.17 520.11 721.39 517.64 721.39"/><polygon class="cls-5" points="528.84 721.39 526.36 724.17 526.36 721.39 528.84 721.39"/><rect class="cls-5" x="518.78" y="759.19" width="8.91" height="3.66" transform="translate(1046.47 1522.04) rotate(180)"/><rect class="cls-5" x="501.61" y="721.39" width="6.25" height="37.8" transform="translate(1009.46 1480.58) rotate(180)"/><polygon class="cls-5" points="499.13 721.39 501.61 724.17 501.61 721.39 499.13 721.39"/><polygon class="cls-5" points="510.33 721.39 507.85 724.17 507.85 721.39 510.33 721.39"/><rect class="cls-5" x="500.28" y="759.19" width="8.91" height="3.66" transform="translate(1009.46 1522.04) rotate(180)"/><rect class="cls-5" x="483.1" y="721.39" width="6.25" height="37.8" transform="translate(972.45 1480.58) rotate(180)"/><polygon class="cls-5" points="480.63 721.39 483.1 724.17 483.1 721.39 480.63 721.39"/><polygon class="cls-5" points="491.82 721.39 489.35 724.17 489.35 721.39 491.82 721.39"/><rect class="cls-5" x="481.77" y="759.19" width="8.91" height="3.66" transform="translate(972.45 1522.04) rotate(180)"/><rect class="cls-5" x="464.6" y="721.39" width="6.25" height="37.8" transform="translate(935.44 1480.58) rotate(180)"/><polygon class="cls-5" points="462.12 721.39 464.6 724.17 464.6 721.39 462.12 721.39"/><polygon class="cls-5" points="473.32 721.39 470.84 724.17 470.84 721.39 473.32 721.39"/><rect class="cls-5" x="463.26" y="759.19" width="8.91" height="3.66" transform="translate(935.44 1522.04) rotate(180)"/><rect class="cls-5" x="393.7" y="719.91" width="66.11" height="42.94"/><rect class="cls-5" x="415.49" y="646.92" width="22.53" height="82.38"/><rect class="cls-5" x="410.79" y="642.63" width="33.26" height="4.29"/><path class="cls-5" d="M893.05,389.89H768.56V777.24h16.71c6.53-20.12,23.1-34.66,45.38-34.66a50.14,50.14,0,0,1,47.69,34.66h14.71Z"/><rect class="cls-3" x="778.16" y="400.62" width="5.19" height="326.9"/><rect class="cls-3" x="790.56" y="400.62" width="5.19" height="326.9"/><rect class="cls-3" x="802.95" y="400.62" width="5.19" height="326.9"/><rect class="cls-3" x="815.34" y="400.62" width="5.19" height="326.9"/><rect class="cls-3" x="827.73" y="400.62" width="5.19" height="326.9"/><rect class="cls-3" x="840.12" y="400.62" width="5.19" height="326.9"/><rect class="cls-3" x="852.51" y="400.62" width="5.19" height="326.9"/><rect class="cls-3" x="864.9" y="400.62" width="5.19" height="326.9"/><rect class="cls-3" x="877.29" y="400.62" width="5.19" height="326.9"/><rect class="cls-5" x="961.93" y="321.56" width="19.85" height="446.84"/><rect class="cls-5" x="1009.48" y="293.86" width="19.86" height="75.26" transform="translate(1350.9 -687.93) rotate(90)"/><rect class="cls-5" x="1043.81" y="321.56" width="19.85" height="446.84"/><rect class="cls-3" x="981.78" y="374.51" width="62.03" height="393.88"/><rect class="cls-3" x="913.97" y="383.62" width="47.97" height="384.78"/><rect class="cls-5" x="981.78" y="383.62" width="62.03" height="7.45"/><rect class="cls-5" x="981.78" y="397.89" width="62.03" height="7.45"/><rect class="cls-5" x="981.78" y="412.16" width="62.03" height="7.45"/><rect class="cls-5" x="981.78" y="426.44" width="62.03" height="7.45"/><rect class="cls-5" x="981.78" y="440.71" width="62.03" height="7.45"/><rect class="cls-5" x="981.78" y="454.99" width="62.03" height="7.45"/><rect class="cls-5" x="981.78" y="497.81" width="62.03" height="7.45"/><rect class="cls-5" x="981.78" y="512.08" width="62.03" height="7.45"/><rect class="cls-5" x="981.78" y="526.36" width="62.03" height="7.45"/><rect class="cls-5" x="981.78" y="540.63" width="62.03" height="7.45"/><rect class="cls-5" x="981.78" y="554.9" width="62.03" height="7.45"/><rect class="cls-5" x="981.78" y="569.18" width="62.03" height="7.45"/><rect class="cls-5" x="981.78" y="583.45" width="62.03" height="7.45"/><rect class="cls-5" x="981.78" y="626.27" width="62.03" height="7.45"/><rect class="cls-5" x="981.78" y="640.55" width="62.03" height="7.45"/><rect class="cls-5" x="981.78" y="654.82" width="62.03" height="7.45"/><rect class="cls-5" x="981.78" y="669.1" width="62.03" height="7.45"/><rect class="cls-5" x="981.78" y="683.37" width="62.03" height="7.45"/><rect class="cls-5" x="981.78" y="697.64" width="62.03" height="7.45"/><rect class="cls-5" x="981.78" y="711.92" width="62.03" height="7.45"/><rect class="cls-5" x="669.8" y="726.29" width="6.19" height="33.36"/><rect class="cls-5" x="684.07" y="726.29" width="6.19" height="33.36"/><rect class="cls-5" x="669.39" y="720.63" width="21.39" height="5.66"/><rect class="cls-5" x="668.87" y="714.13" width="22.09" height="1.28"/><rect class="cls-5" x="669.74" y="715.41" width="20.52" height="5.22"/><rect class="cls-3" x="662.9" y="704.53" width="10.41" height="57.12"/><rect class="cls-3" x="686.91" y="704.53" width="10.41" height="57.12"/><rect class="cls-3" x="662.2" y="695.01" width="35.98" height="9.52"/><rect class="cls-3" x="661.34" y="684.08" width="37.17" height="2.16"/><rect class="cls-3" x="662.8" y="686.23" width="34.52" height="8.78"/><rect class="cls-5" x="640.36" y="672.97" width="24.18" height="94.36"/><rect class="cls-5" x="696.16" y="672.97" width="24.18" height="94.36"/><rect class="cls-5" x="638.75" y="650.85" width="83.6" height="22.12"/><rect class="cls-5" x="636.74" y="625.44" width="86.37" height="5.01"/><rect class="cls-5" x="640.13" y="630.45" width="80.21" height="20.39"/><rect class="cls-5" x="1172.01" y="451.24" width="107.99" height="318.79"/><rect class="cls-5" x="1064.03" y="657.96" width="107.99" height="112.08"/><rect class="cls-5" x="1084.59" y="587.3" width="87.42" height="76.94"/><rect class="cls-5" x="1187.41" y="422" width="82.28" height="29.25"/><rect class="cls-3" x="1182.87" y="464.85" width="9.71" height="9.14"/><rect class="cls-3" x="1202.01" y="464.85" width="9.71" height="9.14"/><rect class="cls-3" x="1197.15" y="432.05" width="9.71" height="9.14"/><rect class="cls-3" x="1223.7" y="432.05" width="9.71" height="9.14"/><rect class="cls-3" x="1250.24" y="432.05" width="9.71" height="9.14"/><rect class="cls-3" x="1221.15" y="464.85" width="9.71" height="9.14"/><rect class="cls-3" x="1240.29" y="464.85" width="9.71" height="9.14"/><rect class="cls-3" x="1259.43" y="464.85" width="9.71" height="9.14"/><rect class="cls-3" x="1182.87" y="481.99" width="9.71" height="9.14"/><rect class="cls-3" x="1202.01" y="481.99" width="9.71" height="9.14"/><rect class="cls-3" x="1221.15" y="481.99" width="9.71" height="9.14"/><rect class="cls-3" x="1240.29" y="481.99" width="9.71" height="9.14"/><rect class="cls-3" x="1259.43" y="481.99" width="9.71" height="9.14"/><rect class="cls-3" x="1182.87" y="499.13" width="9.71" height="9.14"/><rect class="cls-3" x="1202.01" y="499.13" width="9.71" height="9.14"/><rect class="cls-3" x="1221.15" y="499.13" width="9.71" height="9.14"/><rect class="cls-3" x="1240.29" y="499.13" width="9.71" height="9.14"/><rect class="cls-3" x="1259.43" y="499.13" width="9.71" height="9.14"/><rect class="cls-3" x="1182.87" y="516.27" width="9.71" height="9.14"/><rect class="cls-3" x="1202.01" y="516.27" width="9.71" height="9.14"/><rect class="cls-3" x="1221.15" y="516.27" width="9.71" height="9.14"/><rect class="cls-3" x="1240.29" y="516.27" width="9.71" height="9.14"/><rect class="cls-3" x="1259.43" y="516.27" width="9.71" height="9.14"/><rect class="cls-3" x="1182.87" y="533.41" width="9.71" height="9.14"/><rect class="cls-3" x="1202.01" y="533.41" width="9.71" height="9.14"/><rect class="cls-3" x="1221.15" y="533.41" width="9.71" height="9.14"/><rect class="cls-3" x="1240.29" y="533.41" width="9.71" height="9.14"/><rect class="cls-3" x="1259.43" y="533.41" width="9.71" height="9.14"/><rect class="cls-3" x="1182.87" y="550.55" width="9.71" height="9.14"/><rect class="cls-3" x="1202.01" y="550.55" width="9.71" height="9.14"/><rect class="cls-3" x="1221.15" y="550.55" width="9.71" height="9.14"/><rect class="cls-3" x="1240.29" y="550.55" width="9.71" height="9.14"/><rect class="cls-3" x="1259.43" y="550.55" width="9.71" height="9.14"/><rect class="cls-3" x="1182.87" y="567.69" width="9.71" height="9.14"/><rect class="cls-3" x="1202.01" y="567.69" width="9.71" height="9.14"/><rect class="cls-3" x="1221.15" y="567.69" width="9.71" height="9.14"/><rect class="cls-3" x="1240.29" y="567.69" width="9.71" height="9.14"/><rect class="cls-3" x="1259.43" y="567.69" width="9.71" height="9.14"/><rect class="cls-3" x="1182.87" y="584.83" width="9.71" height="9.14"/><rect class="cls-3" x="1202.01" y="584.83" width="9.71" height="9.14"/><rect class="cls-3" x="1221.15" y="584.83" width="9.71" height="9.14"/><rect class="cls-3" x="1240.29" y="584.83" width="9.71" height="9.14"/><rect class="cls-3" x="1259.43" y="584.83" width="9.71" height="9.14"/><rect class="cls-3" x="1182.87" y="601.97" width="9.71" height="9.14"/><rect class="cls-3" x="1202.01" y="601.97" width="9.71" height="9.14"/><rect class="cls-3" x="1221.15" y="601.97" width="9.71" height="9.14"/><rect class="cls-3" x="1240.29" y="601.97" width="9.71" height="9.14"/><rect class="cls-3" x="1259.43" y="601.97" width="9.71" height="9.14"/><rect class="cls-3" x="1182.87" y="619.11" width="9.71" height="9.14"/><rect class="cls-3" x="1202.01" y="619.11" width="9.71" height="9.14"/><rect class="cls-3" x="1221.15" y="619.11" width="9.71" height="9.14"/><rect class="cls-3" x="1240.29" y="619.11" width="9.71" height="9.14"/><rect class="cls-3" x="1259.43" y="619.11" width="9.71" height="9.14"/><rect class="cls-3" x="1182.87" y="636.25" width="9.71" height="9.14"/><rect class="cls-3" x="1202.01" y="636.25" width="9.71" height="9.14"/><rect class="cls-3" x="1221.15" y="636.25" width="9.71" height="9.14"/><rect class="cls-3" x="1240.29" y="636.25" width="9.71" height="9.14"/><rect class="cls-3" x="1259.43" y="636.25" width="9.71" height="9.14"/><rect class="cls-3" x="1182.87" y="653.39" width="9.71" height="9.14"/><rect class="cls-3" x="1202.01" y="653.39" width="9.71" height="9.14"/><rect class="cls-3" x="1221.15" y="653.39" width="9.71" height="9.14"/><rect class="cls-3" x="1240.29" y="653.39" width="9.71" height="9.14"/><rect class="cls-3" x="1259.43" y="653.39" width="9.71" height="9.14"/><rect class="cls-3" x="1182.87" y="670.53" width="9.71" height="9.14"/><rect class="cls-3" x="1202.01" y="670.53" width="9.71" height="9.14"/><rect class="cls-3" x="1221.15" y="670.53" width="9.71" height="9.14"/><rect class="cls-3" x="1240.29" y="670.53" width="9.71" height="9.14"/><rect class="cls-3" x="1259.43" y="670.53" width="9.71" height="9.14"/><rect class="cls-3" x="1182.87" y="687.67" width="9.71" height="9.14"/><rect class="cls-3" x="1202.01" y="687.67" width="9.71" height="9.14"/><rect class="cls-3" x="1221.15" y="687.67" width="9.71" height="9.14"/><rect class="cls-3" x="1240.29" y="687.67" width="9.71" height="9.14"/><rect class="cls-3" x="1259.43" y="687.67" width="9.71" height="9.14"/><rect class="cls-3" x="1182.87" y="704.81" width="9.71" height="9.14"/><rect class="cls-3" x="1202.01" y="704.81" width="9.71" height="9.14"/><rect class="cls-3" x="1221.15" y="704.81" width="9.71" height="9.14"/><rect class="cls-3" x="1240.29" y="704.81" width="9.71" height="9.14"/><rect class="cls-3" x="1259.43" y="704.81" width="9.71" height="9.14"/><rect class="cls-3" x="1182.87" y="721.95" width="9.71" height="9.14"/><rect class="cls-3" x="1202.01" y="721.95" width="9.71" height="9.14"/><rect class="cls-3" x="1221.15" y="721.95" width="9.71" height="9.14"/><rect class="cls-3" x="1240.29" y="721.95" width="9.71" height="9.14"/><rect class="cls-3" x="1259.43" y="721.95" width="9.71" height="9.14"/><rect class="cls-3" x="1182.87" y="739.09" width="9.71" height="9.14"/><rect class="cls-3" x="1202.01" y="739.09" width="9.71" height="9.14"/><rect class="cls-3" x="1221.15" y="739.09" width="9.71" height="9.14"/><rect class="cls-3" x="1240.29" y="739.09" width="9.71" height="9.14"/><rect class="cls-3" x="1259.43" y="739.09" width="9.71" height="9.14"/><rect class="cls-3" x="1074.88" y="670.53" width="9.71" height="9.14"/><rect class="cls-3" x="1094.02" y="670.53" width="9.71" height="9.14"/><rect class="cls-3" x="1113.16" y="670.53" width="9.71" height="9.14"/><rect class="cls-3" x="1132.3" y="670.53" width="9.71" height="9.14"/><rect class="cls-3" x="1151.45" y="670.53" width="9.71" height="9.14"/><rect class="cls-3" x="1074.88" y="687.67" width="9.71" height="9.14"/><rect class="cls-3" x="1094.02" y="687.67" width="9.71" height="9.14"/><rect class="cls-3" x="1113.16" y="687.67" width="9.71" height="9.14"/><rect class="cls-3" x="1132.3" y="687.67" width="9.71" height="9.14"/><rect class="cls-3" x="1151.45" y="687.67" width="9.71" height="9.14"/><rect class="cls-3" x="1074.88" y="704.81" width="9.71" height="9.14"/><rect class="cls-3" x="1094.02" y="704.81" width="9.71" height="9.14"/><rect class="cls-3" x="1113.16" y="704.81" width="9.71" height="9.14"/><rect class="cls-3" x="1132.3" y="704.81" width="9.71" height="9.14"/><rect class="cls-3" x="1151.45" y="704.81" width="9.71" height="9.14"/><rect class="cls-3" x="1094.02" y="606.54" width="9.71" height="9.14"/><rect class="cls-3" x="1113.16" y="606.54" width="9.71" height="9.14"/><rect class="cls-3" x="1132.3" y="606.54" width="9.71" height="9.14"/><rect class="cls-3" x="1151.45" y="606.54" width="9.71" height="9.14"/><rect class="cls-3" x="1094.02" y="623.68" width="9.71" height="9.14"/><rect class="cls-3" x="1113.16" y="623.68" width="9.71" height="9.14"/><rect class="cls-3" x="1132.3" y="623.68" width="9.71" height="9.14"/><rect class="cls-3" x="1151.45" y="623.68" width="9.71" height="9.14"/><rect class="cls-3" x="1094.02" y="640.82" width="9.71" height="9.14"/><rect class="cls-3" x="1113.16" y="640.82" width="9.71" height="9.14"/><rect class="cls-3" x="1132.3" y="640.82" width="9.71" height="9.14"/><rect class="cls-3" x="1151.45" y="640.82" width="9.71" height="9.14"/><rect class="cls-3" x="1074.88" y="721.95" width="9.71" height="9.14"/><rect class="cls-3" x="1094.02" y="721.95" width="9.71" height="9.14"/><rect class="cls-3" x="1113.16" y="721.95" width="9.71" height="9.14"/><rect class="cls-3" x="1132.3" y="721.95" width="9.71" height="9.14"/><rect class="cls-3" x="1151.45" y="721.95" width="9.71" height="9.14"/><rect class="cls-3" x="1074.88" y="739.09" width="9.71" height="9.14"/><rect class="cls-3" x="1094.02" y="739.09" width="9.71" height="9.14"/><rect class="cls-3" x="1113.16" y="739.09" width="9.71" height="9.14"/><rect class="cls-3" x="1132.3" y="739.09" width="9.71" height="9.14"/><rect class="cls-3" x="1151.45" y="739.09" width="9.71" height="9.14"/><polyline class="cls-5" points="0 800 0 451.28 93.48 451.28 93.48 759.43 1280 762.44 1280 800"/><rect class="cls-5" x="8.96" y="434.62" width="75.56" height="16.66"/><rect class="cls-5" x="17.82" y="396.82" width="57.84" height="37.8"/><polygon class="cls-5" points="31.3 399.39 31.3 380.17 47.78 363.03 62.19 381.21 62.19 396.82 31.3 399.39"/><rect class="cls-5" x="45.73" y="319.94" width="2.03" height="53.82" rx="0.36"/></svg>