<?xml version="1.0" encoding="utf-8"?>
<!-- Generator: Adobe Illustrator 25.0.0, SVG Export Plug-In . SVG Version: 6.00 Build 0)  -->
<svg version="1.1" id="Capa_1" xmlns="http://www.w3.org/2000/svg" xmlns:xlink="http://www.w3.org/1999/xlink" x="0px" y="0px"
	 viewBox="0 0 1920 952" style="enable-background:new 0 0 1920 952;" xml:space="preserve">
<style type="text/css">
	.st0{opacity:0.27;fill:#0077BD;}
	.st1{opacity:0.3;}
	.st2{fill:#2E8CCC;}
	.st3{clip-path:url(#XMLID_2918_);fill:#0077BD;}
	.st4{clip-path:url(#XMLID_2919_);fill:#0077BD;}
	.st5{fill:#0077BD;}
	.st6{fill:#1D71B8;}
	.st7{opacity:0.22;}
	.st8{fill:#FFFFFF;}
	.st9{fill:#ED7233;}
	.st10{fill:#EF8221;}
	.st11{clip-path:url(#XMLID_2920_);fill:#0077BD;}
	.st12{clip-path:url(#XMLID_2921_);fill:#0077BD;}
	.st13{clip-path:url(#XMLID_2922_);fill:#0077BD;}
	.st14{clip-path:url(#XMLID_2923_);fill:#0077BD;}
	.st15{clip-path:url(#XMLID_2924_);fill:#0077BD;}
	.st16{clip-path:url(#XMLID_2925_);fill:#0077BD;}
	.st17{opacity:0.5;}
	.st18{clip-path:url(#XMLID_2926_);fill:#0077BD;}
	.st19{clip-path:url(#XMLID_2927_);fill:#0077BD;}
	.st20{clip-path:url(#XMLID_2928_);fill:#0077BD;}
	.st21{clip-path:url(#XMLID_2929_);fill:#0077BD;}
	.st22{clip-path:url(#XMLID_2930_);fill:#0077BD;}
	.st23{clip-path:url(#XMLID_2931_);fill:#0077BD;}
	.st24{clip-path:url(#XMLID_2932_);fill:#0077BD;}
	.st25{clip-path:url(#XMLID_2933_);fill:#0077BD;}
	.st26{fill:none;stroke:#FFFFFF;stroke-width:4;stroke-miterlimit:10;}
	.st27{clip-path:url(#XMLID_2934_);fill:#0077BD;}
	.st28{clip-path:url(#XMLID_2935_);fill:#0077BD;}
	.st29{fill:#0066CC;}
	.st30{opacity:0.27;fill:#BADAED;}
	.st31{opacity:0.27;fill:url(#SVGID_1_);}
	.st32{fill:none;stroke:#0077BD;stroke-miterlimit:10;}
	.st33{fill:none;stroke:#FFFFFF;stroke-miterlimit:10;}
	.st34{fill:#BADAED;}
	.st35{fill:none;stroke:#FFFFFF;stroke-width:2;stroke-miterlimit:10;}
</style>
<rect x="0" y="-248" class="st0" width="1920" height="1200"/>
<g id="XMLID_2593_">
	<g id="XMLID_2902_">
		<g id="XMLID_2910_">
			<polygon id="XMLID_2916_" class="st2" points="115.83,892.58 162.44,714.79 238.18,714.79 191.57,892.58 			"/>
			<g id="XMLID_2911_">
				<defs>
					<polygon id="XMLID_2912_" points="115.83,892.58 162.44,714.79 238.18,714.79 191.57,892.58 					"/>
				</defs>
				<clipPath id="XMLID_2918_">
					<use xlink:href="#XMLID_2912_"  style="overflow:visible;"/>
				</clipPath>
				<rect id="XMLID_2915_" x="151.68" y="739.16" class="st3" width="83.23" height="5.98"/>
				<rect id="XMLID_2914_" x="140.16" y="785" class="st3" width="83.23" height="5.98"/>
				<rect id="XMLID_2913_" x="128.65" y="830.83" class="st3" width="83.23" height="5.98"/>
			</g>
		</g>
		<g id="XMLID_2903_">
			<polygon id="XMLID_2909_" class="st2" points="376.38,892.58 329.78,714.79 254.04,714.79 300.65,892.58 			"/>
			<g id="XMLID_2904_">
				<defs>
					<polygon id="XMLID_2905_" points="376.38,892.58 329.78,714.79 254.04,714.79 300.65,892.58 					"/>
				</defs>
				<clipPath id="XMLID_2919_">
					<use xlink:href="#XMLID_2905_"  style="overflow:visible;"/>
				</clipPath>
				
					<rect id="XMLID_2908_" x="257.31" y="739.16" transform="matrix(-1 -1.224647e-16 1.224647e-16 -1 597.8513 1484.3068)" class="st4" width="83.23" height="5.98"/>
				
					<rect id="XMLID_2907_" x="268.83" y="785" transform="matrix(-1 -1.224647e-16 1.224647e-16 -1 620.8761 1575.9778)" class="st4" width="83.23" height="5.98"/>
				
					<rect id="XMLID_2906_" x="280.34" y="830.83" transform="matrix(-1 -1.224647e-16 1.224647e-16 -1 643.9009 1667.6487)" class="st4" width="83.23" height="5.98"/>
			</g>
		</g>
	</g>
	<g id="XMLID_2895_">
		<polygon id="XMLID_2901_" class="st5" points="1096.46,893.88 1107.43,608.66 1118.39,608.66 1127.67,893.88 		"/>
		<rect id="XMLID_2900_" x="1084.66" y="591.79" class="st5" width="55.94" height="11.81"/>
		<polygon id="XMLID_2899_" class="st5" points="1107.43,608.66 1084.66,603.6 1140.6,603.6 1118.39,608.66 		"/>
		<path id="XMLID_2898_" class="st5" d="M1145.73,591.79h-67.62c-0.43,0-0.77-0.35-0.77-0.77v-19.55c0-0.43,0.35-0.77,0.77-0.77
			h67.62c0.43,0,0.77,0.35,0.77,0.77v19.55C1146.5,591.44,1146.16,591.79,1145.73,591.79z"/>
		<path id="XMLID_2897_" class="st5" d="M1096.56,497.69l-7.69,73h46.39l-9.47-73.06c-0.17-1.33-1.3-2.32-2.64-2.32h-23.94
			C1097.85,495.31,1096.71,496.33,1096.56,497.69z"/>
		<path id="XMLID_2896_" class="st5" d="M1102.65,499.53l6.68-112.67c0,0,1.69-1.97,3.23,0l6.68,108.45L1102.65,499.53z"/>
	</g>
	<g id="XMLID_2789_">
		<rect id="XMLID_2894_" x="370.39" y="819.79" class="st5" width="552.76" height="14.29"/>
		<g id="XMLID_2840_">
			<rect id="XMLID_2893_" x="341.42" y="824.62" class="st5" width="31.38" height="71.65"/>
			<path id="XMLID_2892_" class="st2" d="M377.29,826.03h-41.56c-0.19,0-0.34-0.15-0.34-0.34v-2.14c0-0.19,0.15-0.34,0.34-0.34
				h41.56c0.19,0,0.34,0.15,0.34,0.34v2.14C377.63,825.88,377.48,826.03,377.29,826.03z"/>
			<path id="XMLID_2891_" class="st2" d="M377.29,841.43h-41.56c-0.19,0-0.34-0.15-0.34-0.34v-2.14c0-0.19,0.15-0.34,0.34-0.34
				h41.56c0.19,0,0.34,0.15,0.34,0.34v2.14C377.63,841.28,377.48,841.43,377.29,841.43z"/>
			<rect id="XMLID_2890_" x="343.23" y="804.29" class="st5" width="27.76" height="18.92"/>
			<path id="XMLID_2889_" class="st5" d="M355.01,786.49l-12.38,17.81h27.76l-11.3-17.73C358.15,785.09,356.01,785.05,355.01,786.49
				z"/>
			<rect id="XMLID_2888_" x="348.93" y="849.18" class="st2" width="16.49" height="31.93"/>
			<rect id="XMLID_2887_" x="631.88" y="752.24" class="st2" width="16.49" height="31.93"/>
			<rect id="XMLID_2886_" x="383.15" y="834.08" class="st5" width="9.37" height="56.7"/>
			<g id="XMLID_2883_">
				<polygon id="XMLID_2885_" class="st5" points="396.24,834.08 392.52,838.25 392.52,834.08 				"/>
				<polygon id="XMLID_2884_" class="st5" points="379.44,834.08 383.15,838.25 383.15,834.08 				"/>
			</g>
			<rect id="XMLID_2882_" x="381.15" y="890.78" class="st5" width="13.37" height="5.49"/>
			<rect id="XMLID_2881_" x="410.91" y="834.08" class="st5" width="9.37" height="56.7"/>
			<g id="XMLID_2878_">
				<polygon id="XMLID_2880_" class="st5" points="423.99,834.08 420.28,838.25 420.28,834.08 				"/>
				<polygon id="XMLID_2879_" class="st5" points="407.2,834.08 410.91,838.25 410.91,834.08 				"/>
			</g>
			<rect id="XMLID_2877_" x="408.91" y="890.78" class="st5" width="13.37" height="5.49"/>
			<rect id="XMLID_2876_" x="438.67" y="834.08" class="st5" width="9.37" height="56.7"/>
			<g id="XMLID_2873_">
				<polygon id="XMLID_2875_" class="st5" points="451.75,834.08 448.04,838.25 448.04,834.08 				"/>
				<polygon id="XMLID_2874_" class="st5" points="434.96,834.08 438.67,838.25 438.67,834.08 				"/>
			</g>
			<rect id="XMLID_2872_" x="436.67" y="890.78" class="st5" width="13.37" height="5.49"/>
			<rect id="XMLID_2871_" x="466.43" y="834.08" class="st5" width="9.37" height="56.7"/>
			<g id="XMLID_2868_">
				<polygon id="XMLID_2870_" class="st5" points="479.51,834.08 475.8,838.25 475.8,834.08 				"/>
				<polygon id="XMLID_2869_" class="st5" points="462.72,834.08 466.43,838.25 466.43,834.08 				"/>
			</g>
			<rect id="XMLID_2867_" x="464.43" y="890.78" class="st5" width="13.37" height="5.49"/>
			<rect id="XMLID_2866_" x="494.19" y="834.08" class="st5" width="9.37" height="56.7"/>
			<g id="XMLID_2863_">
				<polygon id="XMLID_2865_" class="st5" points="507.27,834.08 503.56,838.25 503.56,834.08 				"/>
				<polygon id="XMLID_2864_" class="st5" points="490.47,834.08 494.19,838.25 494.19,834.08 				"/>
			</g>
			<rect id="XMLID_2862_" x="492.19" y="890.78" class="st5" width="13.37" height="5.49"/>
			<rect id="XMLID_2861_" x="521.95" y="834.08" class="st5" width="9.37" height="56.7"/>
			<g id="XMLID_2858_">
				<polygon id="XMLID_2860_" class="st5" points="535.03,834.08 531.31,838.25 531.31,834.08 				"/>
				<polygon id="XMLID_2859_" class="st5" points="518.23,834.08 521.95,838.25 521.95,834.08 				"/>
			</g>
			<rect id="XMLID_2857_" x="519.95" y="890.78" class="st5" width="13.37" height="5.49"/>
			<rect id="XMLID_2856_" x="549.7" y="834.08" class="st5" width="9.37" height="56.7"/>
			<g id="XMLID_2853_">
				<polygon id="XMLID_2855_" class="st5" points="562.79,834.08 559.07,838.25 559.07,834.08 				"/>
				<polygon id="XMLID_2854_" class="st5" points="545.99,834.08 549.7,838.25 549.7,834.08 				"/>
			</g>
			<rect id="XMLID_2852_" x="547.71" y="890.78" class="st5" width="13.37" height="5.49"/>
			<rect id="XMLID_2851_" x="577.46" y="834.08" class="st5" width="9.37" height="56.7"/>
			<g id="XMLID_2848_">
				<polygon id="XMLID_2850_" class="st5" points="590.55,834.08 586.83,838.25 586.83,834.08 				"/>
				<polygon id="XMLID_2849_" class="st5" points="573.75,834.08 577.46,838.25 577.46,834.08 				"/>
			</g>
			<rect id="XMLID_2847_" x="575.46" y="890.78" class="st5" width="13.37" height="5.49"/>
			<rect id="XMLID_2846_" x="624.84" y="697.83" class="st5" width="30.57" height="18.11"/>
			<path id="XMLID_2845_" class="st5" d="M654.91,700.09c0,8.14-6.6,14.74-14.73,14.74c-8.14,0-14.73-6.6-14.73-14.74
				c0-8.14,6.6-14.74,14.73-14.74C648.32,685.35,654.91,691.95,654.91,700.09z"/>
			<path id="XMLID_2844_" class="st5" d="M637.72,687.06c0,0,0.8-3.72-0.5-6.64c-1.31-2.92-2.72-4.23-4.02-7.55
				c-1.31-3.32-2.51-6.44,1.11-10.57c3.62-4.13,5.13-13.59,5.33-15.8c0.2-2.21,1.11-3.82,2.51-0.8c1.41,3.02,2.51,0.1,3.62-0.3
				c1.11-0.4,0.5,1.31,1.61,3.32c1.11,2.01,4.83,1.51,3.82,5.53c-1.01,4.03-5.33,2.21-5.23,3.62c0.1,1.41,3.82,4.43,4.73,8.55
				c0.91,4.13-2.21,7.75-3.62,10.97c-1.41,3.22,0.4,11.57,0.4,11.57s-2.72-1.21-2.72-1.51c0-0.3-1.01-6.34-1.31-6.54
				c-0.3-0.2,0.1,6.24,0.1,6.54c0,0.3-1.92-1.21-1.92-1.21v-5.74c0,0-1.3-0.1-1.5,1.01c-0.2,1.11,0,4.43,0,4.43L637.72,687.06z"/>
			<path id="XMLID_2843_" class="st5" d="M640.13,650.6c0,0-7.15,9.39-8.23,10.2c-1.09,0.81-1.6,2.01,0,1.21
				c1.6-0.8,6.02-4.29,6.42-4.83C638.72,656.64,640.13,650.6,640.13,650.6z"/>
			<path id="XMLID_2842_" class="st5" d="M623.23,788.4c-2.21,0.4-24.14,3.22-32.69,31.4h32.69V788.4z"/>
			<path id="XMLID_2841_" class="st5" d="M657.03,788.4c2.21,0.4,24.14,3.22,32.69,31.4h-32.69V788.4z"/>
		</g>
		<g id="XMLID_2793_">
			
				<rect id="XMLID_2839_" x="910.93" y="824.62" transform="matrix(-1 -1.224647e-16 1.224647e-16 -1 1853.2301 1720.8934)" class="st5" width="31.38" height="71.65"/>
			<path id="XMLID_2838_" class="st2" d="M906.44,826.03H948c0.19,0,0.34-0.15,0.34-0.34v-2.14c0-0.19-0.15-0.34-0.34-0.34h-41.56
				c-0.19,0-0.34,0.15-0.34,0.34v2.14C906.1,825.88,906.25,826.03,906.44,826.03z"/>
			<path id="XMLID_2837_" class="st2" d="M906.44,841.43H948c0.19,0,0.34-0.15,0.34-0.34v-2.14c0-0.19-0.15-0.34-0.34-0.34h-41.56
				c-0.19,0-0.34,0.15-0.34,0.34v2.14C906.1,841.28,906.25,841.43,906.44,841.43z"/>
			
				<rect id="XMLID_2836_" x="912.74" y="804.29" transform="matrix(-1 -1.224647e-16 1.224647e-16 -1 1853.2301 1627.5082)" class="st6" width="27.76" height="18.92"/>
			<path id="XMLID_2835_" class="st5" d="M928.72,786.49l12.38,17.81h-27.76l11.3-17.73C925.58,785.09,927.72,785.05,928.72,786.49z
				"/>
			
				<rect id="XMLID_2834_" x="918.3" y="849.18" transform="matrix(-1 -1.224647e-16 1.224647e-16 -1 1853.0962 1730.2855)" class="st2" width="16.49" height="31.93"/>
			
				<rect id="XMLID_2833_" x="891.21" y="834.08" transform="matrix(-1 -1.224647e-16 1.224647e-16 -1 1791.7795 1724.8656)" class="st5" width="9.37" height="56.7"/>
			<g id="XMLID_2830_">
				<polygon id="XMLID_2832_" class="st5" points="887.49,834.08 891.21,838.25 891.21,834.08 				"/>
				<polygon id="XMLID_2831_" class="st5" points="904.29,834.08 900.57,838.25 900.57,834.08 				"/>
			</g>
			
				<rect id="XMLID_2829_" x="889.21" y="890.78" transform="matrix(-1 -1.224647e-16 1.224647e-16 -1 1791.7795 1787.0555)" class="st5" width="13.37" height="5.49"/>
			
				<rect id="XMLID_2828_" x="863.45" y="834.08" transform="matrix(-1 -1.224647e-16 1.224647e-16 -1 1736.2625 1724.8656)" class="st5" width="9.37" height="56.7"/>
			<g id="XMLID_2825_">
				<polygon id="XMLID_2827_" class="st5" points="859.73,834.08 863.45,838.25 863.45,834.08 				"/>
				<polygon id="XMLID_2826_" class="st5" points="876.53,834.08 872.82,838.25 872.82,834.08 				"/>
			</g>
			
				<rect id="XMLID_2824_" x="861.45" y="890.78" transform="matrix(-1 -1.224647e-16 1.224647e-16 -1 1736.2625 1787.0555)" class="st5" width="13.37" height="5.49"/>
			
				<rect id="XMLID_2823_" x="835.69" y="834.08" transform="matrix(-1 -1.224647e-16 1.224647e-16 -1 1680.7452 1724.8656)" class="st5" width="9.37" height="56.7"/>
			<g id="XMLID_2820_">
				<polygon id="XMLID_2822_" class="st5" points="831.97,834.08 835.69,838.25 835.69,834.08 				"/>
				<polygon id="XMLID_2821_" class="st5" points="848.77,834.08 845.06,838.25 845.06,834.08 				"/>
			</g>
			
				<rect id="XMLID_2819_" x="833.69" y="890.78" transform="matrix(-1 -1.224647e-16 1.224647e-16 -1 1680.7452 1787.0555)" class="st5" width="13.37" height="5.49"/>
			
				<rect id="XMLID_2818_" x="807.93" y="834.08" transform="matrix(-1 -1.224647e-16 1.224647e-16 -1 1625.2278 1724.8656)" class="st5" width="9.37" height="56.7"/>
			<g id="XMLID_2815_">
				<polygon id="XMLID_2817_" class="st5" points="804.22,834.08 807.93,838.25 807.93,834.08 				"/>
				<polygon id="XMLID_2816_" class="st5" points="821.01,834.08 817.3,838.25 817.3,834.08 				"/>
			</g>
			
				<rect id="XMLID_2814_" x="805.93" y="890.78" transform="matrix(-1 -1.224647e-16 1.224647e-16 -1 1625.2281 1787.0555)" class="st5" width="13.37" height="5.49"/>
			
				<rect id="XMLID_2813_" x="780.17" y="834.08" transform="matrix(-1 -1.224647e-16 1.224647e-16 -1 1569.7111 1724.8656)" class="st5" width="9.37" height="56.7"/>
			<g id="XMLID_2810_">
				<polygon id="XMLID_2812_" class="st5" points="776.46,834.08 780.17,838.25 780.17,834.08 				"/>
				<polygon id="XMLID_2811_" class="st5" points="793.25,834.08 789.54,838.25 789.54,834.08 				"/>
			</g>
			
				<rect id="XMLID_2809_" x="778.17" y="890.78" transform="matrix(-1 -1.224647e-16 1.224647e-16 -1 1569.7111 1787.0555)" class="st5" width="13.37" height="5.49"/>
			
				<rect id="XMLID_2808_" x="752.41" y="834.08" transform="matrix(-1 -1.224647e-16 1.224647e-16 -1 1514.1936 1724.8656)" class="st5" width="9.37" height="56.7"/>
			<g id="XMLID_2805_">
				<polygon id="XMLID_2807_" class="st5" points="748.7,834.08 752.41,838.25 752.41,834.08 				"/>
				<polygon id="XMLID_2806_" class="st5" points="765.49,834.08 761.78,838.25 761.78,834.08 				"/>
			</g>
			
				<rect id="XMLID_2804_" x="750.41" y="890.78" transform="matrix(-1 -1.224647e-16 1.224647e-16 -1 1514.194 1787.0555)" class="st5" width="13.37" height="5.49"/>
			
				<rect id="XMLID_2803_" x="724.65" y="834.08" transform="matrix(-1 -1.224647e-16 1.224647e-16 -1 1458.6769 1724.8656)" class="st5" width="9.37" height="56.7"/>
			<g id="XMLID_2800_">
				<polygon id="XMLID_2802_" class="st5" points="720.94,834.08 724.65,838.25 724.65,834.08 				"/>
				<polygon id="XMLID_2801_" class="st5" points="737.74,834.08 734.02,838.25 734.02,834.08 				"/>
			</g>
			
				<rect id="XMLID_2799_" x="722.65" y="890.78" transform="matrix(-1 -1.224647e-16 1.224647e-16 -1 1458.6764 1787.0555)" class="st5" width="13.37" height="5.49"/>
			
				<rect id="XMLID_2798_" x="696.9" y="834.08" transform="matrix(-1 -1.224647e-16 1.224647e-16 -1 1403.1593 1724.8656)" class="st5" width="9.37" height="56.7"/>
			<g id="XMLID_2795_">
				<polygon id="XMLID_2797_" class="st5" points="693.18,834.08 696.9,838.25 696.9,834.08 				"/>
				<polygon id="XMLID_2796_" class="st5" points="709.98,834.08 706.26,838.25 706.26,834.08 				"/>
			</g>
			
				<rect id="XMLID_2794_" x="694.9" y="890.78" transform="matrix(-1 -1.224647e-16 1.224647e-16 -1 1403.1597 1787.0555)" class="st5" width="13.37" height="5.49"/>
		</g>
		<rect id="XMLID_2792_" x="590.55" y="831.87" class="st5" width="99.17" height="64.4"/>
		<rect id="XMLID_2791_" x="623.23" y="722.38" class="st5" width="33.79" height="123.57"/>
		<rect id="XMLID_2790_" x="616.19" y="715.94" class="st5" width="49.88" height="6.44"/>
	</g>
	<g id="XMLID_2778_">
		<path id="XMLID_2788_" class="st5" d="M1339.58,336.83h-186.73v581.03h25.06c9.79-30.17,34.65-51.99,68.07-51.99
			s61.74,21.82,71.53,51.99h22.06V336.83z"/>
		<rect id="XMLID_2787_" x="1167.25" y="352.94" class="st2" width="7.78" height="490.35"/>
		<rect id="XMLID_2786_" x="1185.83" y="352.94" class="st2" width="7.78" height="490.35"/>
		<rect id="XMLID_2785_" x="1204.42" y="352.94" class="st2" width="7.78" height="490.35"/>
		<rect id="XMLID_2784_" x="1223.01" y="352.94" class="st2" width="7.78" height="490.35"/>
		<rect id="XMLID_2783_" x="1241.59" y="352.94" class="st2" width="7.78" height="490.35"/>
		<rect id="XMLID_2782_" x="1260.18" y="352.94" class="st2" width="7.78" height="490.35"/>
		<rect id="XMLID_2781_" x="1278.77" y="352.94" class="st2" width="7.78" height="490.35"/>
		<rect id="XMLID_2780_" x="1297.35" y="352.94" class="st2" width="7.78" height="490.35"/>
		<rect id="XMLID_2779_" x="1315.94" y="352.94" class="st2" width="7.78" height="490.35"/>
	</g>
	<g id="XMLID_2751_">
		<rect id="XMLID_2777_" x="1442.9" y="234.33" class="st5" width="29.77" height="670.26"/>
		
			<rect id="XMLID_2776_" x="1514.22" y="192.78" transform="matrix(-1.836970e-16 1 -1 -1.836970e-16 1778.3435 -1279.8879)" class="st5" width="29.79" height="112.89"/>
		<rect id="XMLID_2775_" x="1565.71" y="234.33" class="st5" width="29.77" height="670.26"/>
		<rect id="XMLID_2774_" x="1472.67" y="313.77" class="st2" width="93.04" height="590.82"/>
		<rect id="XMLID_2773_" x="1370.95" y="327.42" class="st2" width="71.95" height="577.16"/>
		<g id="XMLID_2752_">
			<rect id="XMLID_2772_" x="1472.67" y="327.42" class="st5" width="93.04" height="11.17"/>
			<rect id="XMLID_2771_" x="1472.67" y="348.84" class="st5" width="93.04" height="11.17"/>
			<rect id="XMLID_2770_" x="1472.67" y="370.25" class="st5" width="93.04" height="11.17"/>
			<rect id="XMLID_2769_" x="1472.67" y="391.66" class="st5" width="93.04" height="11.17"/>
			<rect id="XMLID_2768_" x="1472.67" y="413.07" class="st5" width="93.04" height="11.17"/>
			<rect id="XMLID_2767_" x="1472.67" y="434.48" class="st5" width="93.04" height="11.17"/>
			<rect id="XMLID_2766_" x="1472.67" y="498.71" class="st5" width="93.04" height="11.17"/>
			<rect id="XMLID_2765_" x="1472.67" y="520.12" class="st5" width="93.04" height="11.17"/>
			<rect id="XMLID_2764_" x="1472.67" y="541.53" class="st5" width="93.04" height="11.17"/>
			<rect id="XMLID_2763_" x="1472.67" y="562.94" class="st5" width="93.04" height="11.17"/>
			<rect id="XMLID_2762_" x="1472.67" y="584.36" class="st5" width="93.04" height="11.17"/>
			<rect id="XMLID_2761_" x="1472.67" y="605.77" class="st5" width="93.04" height="11.17"/>
			<rect id="XMLID_2760_" x="1472.67" y="627.18" class="st5" width="93.04" height="11.17"/>
			<rect id="XMLID_2759_" x="1472.67" y="691.41" class="st5" width="93.04" height="11.17"/>
			<rect id="XMLID_2758_" x="1472.67" y="712.82" class="st5" width="93.04" height="11.17"/>
			<rect id="XMLID_2757_" x="1472.67" y="734.23" class="st5" width="93.04" height="11.17"/>
			<rect id="XMLID_2756_" x="1472.67" y="755.64" class="st5" width="93.04" height="11.17"/>
			<rect id="XMLID_2755_" x="1472.67" y="777.05" class="st5" width="93.04" height="11.17"/>
			<rect id="XMLID_2754_" x="1472.67" y="798.47" class="st5" width="93.04" height="11.17"/>
			<rect id="XMLID_2753_" x="1472.67" y="819.88" class="st5" width="93.04" height="11.17"/>
		</g>
	</g>
	<g id="XMLID_2732_">
		<g id="XMLID_2745_">
			<rect id="XMLID_2750_" x="1004.7" y="841.44" class="st5" width="9.28" height="50.04"/>
			<rect id="XMLID_2749_" x="1026.11" y="841.44" class="st5" width="9.28" height="50.04"/>
			<rect id="XMLID_2748_" x="1004.08" y="832.95" class="st5" width="32.08" height="8.49"/>
			<rect id="XMLID_2747_" x="1003.31" y="823.2" class="st5" width="33.14" height="1.92"/>
			<rect id="XMLID_2746_" x="1004.61" y="825.12" class="st5" width="30.77" height="7.83"/>
		</g>
		<g id="XMLID_2739_">
			<rect id="XMLID_2744_" x="994.35" y="808.8" class="st2" width="15.61" height="85.67"/>
			<rect id="XMLID_2743_" x="1030.36" y="808.8" class="st2" width="15.61" height="85.67"/>
			<rect id="XMLID_2742_" x="993.31" y="794.52" class="st2" width="53.97" height="14.28"/>
			<rect id="XMLID_2741_" x="992.01" y="778.12" class="st2" width="55.75" height="3.24"/>
			<rect id="XMLID_2740_" x="994.2" y="781.35" class="st2" width="51.77" height="13.16"/>
		</g>
		<g id="XMLID_2733_">
			<rect id="XMLID_2738_" x="960.55" y="761.45" class="st5" width="36.27" height="141.55"/>
			<rect id="XMLID_2737_" x="1044.24" y="761.45" class="st5" width="36.27" height="141.55"/>
			<rect id="XMLID_2736_" x="958.13" y="728.27" class="st5" width="125.4" height="33.18"/>
			<rect id="XMLID_2735_" x="955.11" y="690.16" class="st5" width="129.55" height="7.52"/>
			<rect id="XMLID_2734_" x="960.2" y="697.68" class="st5" width="120.31" height="30.59"/>
		</g>
	</g>
	<g id="XMLID_2600_">
		<rect id="XMLID_2731_" x="1758.02" y="428.87" class="st5" width="161.98" height="478.19"/>
		<rect id="XMLID_2730_" x="1596.04" y="738.94" class="st5" width="161.98" height="168.12"/>
		<rect id="XMLID_2729_" x="1626.89" y="632.96" class="st5" width="131.13" height="115.41"/>
		<rect id="XMLID_2728_" x="1781.12" y="384.99" class="st5" width="123.42" height="43.87"/>
		<g id="XMLID_2639_">
			<rect id="XMLID_2727_" x="1774.3" y="449.27" class="st2" width="14.57" height="13.71"/>
			<rect id="XMLID_2726_" x="1803.01" y="449.27" class="st2" width="14.57" height="13.71"/>
			<rect id="XMLID_2725_" x="1795.73" y="400.07" class="st2" width="14.57" height="13.71"/>
			<rect id="XMLID_2724_" x="1835.54" y="400.07" class="st2" width="14.57" height="13.71"/>
			<rect id="XMLID_2723_" x="1875.36" y="400.07" class="st2" width="14.57" height="13.71"/>
			<rect id="XMLID_2722_" x="1831.72" y="449.27" class="st2" width="14.57" height="13.71"/>
			<rect id="XMLID_2721_" x="1860.44" y="449.27" class="st2" width="14.57" height="13.71"/>
			<rect id="XMLID_2720_" x="1889.15" y="449.27" class="st2" width="14.57" height="13.71"/>
			<rect id="XMLID_2719_" x="1774.3" y="474.98" class="st2" width="14.57" height="13.71"/>
			<rect id="XMLID_2718_" x="1803.01" y="474.98" class="st2" width="14.57" height="13.71"/>
			<rect id="XMLID_2717_" x="1831.72" y="474.98" class="st2" width="14.57" height="13.71"/>
			<rect id="XMLID_2716_" x="1860.44" y="474.98" class="st2" width="14.57" height="13.71"/>
			<rect id="XMLID_2715_" x="1889.15" y="474.98" class="st2" width="14.57" height="13.71"/>
			<rect id="XMLID_2714_" x="1774.3" y="500.69" class="st2" width="14.57" height="13.71"/>
			<rect id="XMLID_2713_" x="1803.01" y="500.69" class="st2" width="14.57" height="13.71"/>
			<rect id="XMLID_2712_" x="1831.72" y="500.69" class="st2" width="14.57" height="13.71"/>
			<rect id="XMLID_2711_" x="1860.44" y="500.69" class="st2" width="14.57" height="13.71"/>
			<rect id="XMLID_2710_" x="1889.15" y="500.69" class="st2" width="14.57" height="13.71"/>
			<rect id="XMLID_2709_" x="1774.3" y="526.4" class="st2" width="14.57" height="13.71"/>
			<rect id="XMLID_2708_" x="1803.01" y="526.4" class="st2" width="14.57" height="13.71"/>
			<rect id="XMLID_2707_" x="1831.72" y="526.4" class="st2" width="14.57" height="13.71"/>
			<rect id="XMLID_2706_" x="1860.44" y="526.4" class="st2" width="14.57" height="13.71"/>
			<rect id="XMLID_2705_" x="1889.15" y="526.4" class="st2" width="14.57" height="13.71"/>
			<rect id="XMLID_2704_" x="1774.3" y="552.11" class="st2" width="14.57" height="13.71"/>
			<rect id="XMLID_2703_" x="1803.01" y="552.11" class="st2" width="14.57" height="13.71"/>
			<rect id="XMLID_2702_" x="1831.72" y="552.11" class="st2" width="14.57" height="13.71"/>
			<rect id="XMLID_2701_" x="1860.44" y="552.11" class="st2" width="14.57" height="13.71"/>
			<rect id="XMLID_2700_" x="1889.15" y="552.11" class="st2" width="14.57" height="13.71"/>
			<rect id="XMLID_2699_" x="1774.3" y="577.82" class="st2" width="14.57" height="13.71"/>
			<rect id="XMLID_2698_" x="1803.01" y="577.82" class="st2" width="14.57" height="13.71"/>
			<rect id="XMLID_2697_" x="1831.72" y="577.82" class="st2" width="14.57" height="13.71"/>
			<rect id="XMLID_2696_" x="1860.44" y="577.82" class="st2" width="14.57" height="13.71"/>
			<rect id="XMLID_2695_" x="1889.15" y="577.82" class="st2" width="14.57" height="13.71"/>
			<rect id="XMLID_2694_" x="1774.3" y="603.53" class="st2" width="14.57" height="13.71"/>
			<rect id="XMLID_2693_" x="1803.01" y="603.53" class="st2" width="14.57" height="13.71"/>
			<rect id="XMLID_2692_" x="1831.72" y="603.53" class="st2" width="14.57" height="13.71"/>
			<rect id="XMLID_2691_" x="1860.44" y="603.53" class="st2" width="14.57" height="13.71"/>
			<rect id="XMLID_2690_" x="1889.15" y="603.53" class="st2" width="14.57" height="13.71"/>
			<rect id="XMLID_2689_" x="1774.3" y="629.24" class="st2" width="14.57" height="13.71"/>
			<rect id="XMLID_2688_" x="1803.01" y="629.24" class="st2" width="14.57" height="13.71"/>
			<rect id="XMLID_2687_" x="1831.72" y="629.24" class="st2" width="14.57" height="13.71"/>
			<rect id="XMLID_2686_" x="1860.44" y="629.24" class="st2" width="14.57" height="13.71"/>
			<rect id="XMLID_2685_" x="1889.15" y="629.24" class="st2" width="14.57" height="13.71"/>
			<rect id="XMLID_2684_" x="1774.3" y="654.95" class="st2" width="14.57" height="13.71"/>
			<rect id="XMLID_2683_" x="1803.01" y="654.95" class="st2" width="14.57" height="13.71"/>
			<rect id="XMLID_2682_" x="1831.72" y="654.95" class="st2" width="14.57" height="13.71"/>
			<rect id="XMLID_2681_" x="1860.44" y="654.95" class="st2" width="14.57" height="13.71"/>
			<rect id="XMLID_2680_" x="1889.15" y="654.95" class="st2" width="14.57" height="13.71"/>
			<rect id="XMLID_2679_" x="1774.3" y="680.66" class="st2" width="14.57" height="13.71"/>
			<rect id="XMLID_2678_" x="1803.01" y="680.66" class="st2" width="14.57" height="13.71"/>
			<rect id="XMLID_2677_" x="1831.72" y="680.66" class="st2" width="14.57" height="13.71"/>
			<rect id="XMLID_2676_" x="1860.44" y="680.66" class="st2" width="14.57" height="13.71"/>
			<rect id="XMLID_2675_" x="1889.15" y="680.66" class="st2" width="14.57" height="13.71"/>
			<rect id="XMLID_2674_" x="1774.3" y="706.37" class="st2" width="14.57" height="13.71"/>
			<rect id="XMLID_2673_" x="1803.01" y="706.37" class="st2" width="14.57" height="13.71"/>
			<rect id="XMLID_2672_" x="1831.72" y="706.37" class="st2" width="14.57" height="13.71"/>
			<rect id="XMLID_2671_" x="1860.44" y="706.37" class="st2" width="14.57" height="13.71"/>
			<rect id="XMLID_2670_" x="1889.15" y="706.37" class="st2" width="14.57" height="13.71"/>
			<rect id="XMLID_2669_" x="1774.3" y="732.08" class="st2" width="14.57" height="13.71"/>
			<rect id="XMLID_2668_" x="1803.01" y="732.08" class="st2" width="14.57" height="13.71"/>
			<rect id="XMLID_2667_" x="1831.72" y="732.08" class="st2" width="14.57" height="13.71"/>
			<rect id="XMLID_2666_" x="1860.44" y="732.08" class="st2" width="14.57" height="13.71"/>
			<rect id="XMLID_2665_" x="1889.15" y="732.08" class="st2" width="14.57" height="13.71"/>
			<rect id="XMLID_2664_" x="1774.3" y="757.8" class="st2" width="14.57" height="13.71"/>
			<rect id="XMLID_2663_" x="1803.01" y="757.8" class="st2" width="14.57" height="13.71"/>
			<rect id="XMLID_2662_" x="1831.72" y="757.8" class="st2" width="14.57" height="13.71"/>
			<rect id="XMLID_2661_" x="1860.44" y="757.8" class="st2" width="14.57" height="13.71"/>
			<rect id="XMLID_2660_" x="1889.15" y="757.8" class="st2" width="14.57" height="13.71"/>
			<rect id="XMLID_2659_" x="1774.3" y="783.51" class="st2" width="14.57" height="13.71"/>
			<rect id="XMLID_2658_" x="1803.01" y="783.51" class="st2" width="14.57" height="13.71"/>
			<rect id="XMLID_2657_" x="1831.72" y="783.51" class="st2" width="14.57" height="13.71"/>
			<rect id="XMLID_2656_" x="1860.44" y="783.51" class="st2" width="14.57" height="13.71"/>
			<rect id="XMLID_2655_" x="1889.15" y="783.51" class="st2" width="14.57" height="13.71"/>
			<rect id="XMLID_2654_" x="1774.3" y="809.22" class="st2" width="14.57" height="13.71"/>
			<rect id="XMLID_2653_" x="1803.01" y="809.22" class="st2" width="14.57" height="13.71"/>
			<rect id="XMLID_2652_" x="1831.72" y="809.22" class="st2" width="14.57" height="13.71"/>
			<rect id="XMLID_2651_" x="1860.44" y="809.22" class="st2" width="14.57" height="13.71"/>
			<rect id="XMLID_2650_" x="1889.15" y="809.22" class="st2" width="14.57" height="13.71"/>
			<rect id="XMLID_2649_" x="1774.3" y="834.93" class="st2" width="14.57" height="13.71"/>
			<rect id="XMLID_2648_" x="1803.01" y="834.93" class="st2" width="14.57" height="13.71"/>
			<rect id="XMLID_2647_" x="1831.72" y="834.93" class="st2" width="14.57" height="13.71"/>
			<rect id="XMLID_2646_" x="1860.44" y="834.93" class="st2" width="14.57" height="13.71"/>
			<rect id="XMLID_2645_" x="1889.15" y="834.93" class="st2" width="14.57" height="13.71"/>
			<rect id="XMLID_2644_" x="1774.3" y="860.64" class="st2" width="14.57" height="13.71"/>
			<rect id="XMLID_2643_" x="1803.01" y="860.64" class="st2" width="14.57" height="13.71"/>
			<rect id="XMLID_2642_" x="1831.72" y="860.64" class="st2" width="14.57" height="13.71"/>
			<rect id="XMLID_2641_" x="1860.44" y="860.64" class="st2" width="14.57" height="13.71"/>
			<rect id="XMLID_2640_" x="1889.15" y="860.64" class="st2" width="14.57" height="13.71"/>
		</g>
		<g id="XMLID_2601_">
			<rect id="XMLID_2638_" x="1612.32" y="757.8" class="st2" width="14.57" height="13.71"/>
			<rect id="XMLID_2637_" x="1641.03" y="757.8" class="st2" width="14.57" height="13.71"/>
			<rect id="XMLID_2636_" x="1669.74" y="757.8" class="st2" width="14.57" height="13.71"/>
			<rect id="XMLID_2635_" x="1698.46" y="757.8" class="st2" width="14.57" height="13.71"/>
			<rect id="XMLID_2634_" x="1727.17" y="757.8" class="st2" width="14.57" height="13.71"/>
			<rect id="XMLID_2633_" x="1612.32" y="783.51" class="st2" width="14.57" height="13.71"/>
			<rect id="XMLID_2632_" x="1641.03" y="783.51" class="st2" width="14.57" height="13.71"/>
			<rect id="XMLID_2631_" x="1669.74" y="783.51" class="st2" width="14.57" height="13.71"/>
			<rect id="XMLID_2630_" x="1698.46" y="783.51" class="st2" width="14.57" height="13.71"/>
			<rect id="XMLID_2629_" x="1727.17" y="783.51" class="st2" width="14.57" height="13.71"/>
			<rect id="XMLID_2628_" x="1612.32" y="809.22" class="st2" width="14.57" height="13.71"/>
			<rect id="XMLID_2627_" x="1641.03" y="809.22" class="st2" width="14.57" height="13.71"/>
			<rect id="XMLID_2626_" x="1669.74" y="809.22" class="st2" width="14.57" height="13.71"/>
			<rect id="XMLID_2625_" x="1698.46" y="809.22" class="st2" width="14.57" height="13.71"/>
			<rect id="XMLID_2624_" x="1727.17" y="809.22" class="st2" width="14.57" height="13.71"/>
			<rect id="XMLID_2623_" x="1641.03" y="661.81" class="st2" width="14.57" height="13.71"/>
			<rect id="XMLID_2622_" x="1669.74" y="661.81" class="st2" width="14.57" height="13.71"/>
			<rect id="XMLID_2621_" x="1698.46" y="661.81" class="st2" width="14.57" height="13.71"/>
			<rect id="XMLID_2620_" x="1727.17" y="661.81" class="st2" width="14.57" height="13.71"/>
			<rect id="XMLID_2619_" x="1641.03" y="687.52" class="st2" width="14.57" height="13.71"/>
			<rect id="XMLID_2618_" x="1669.74" y="687.52" class="st2" width="14.57" height="13.71"/>
			<rect id="XMLID_2617_" x="1698.46" y="687.52" class="st2" width="14.57" height="13.71"/>
			<rect id="XMLID_2616_" x="1727.17" y="687.52" class="st2" width="14.57" height="13.71"/>
			<rect id="XMLID_2615_" x="1641.03" y="713.23" class="st2" width="14.57" height="13.71"/>
			<rect id="XMLID_2614_" x="1669.74" y="713.23" class="st2" width="14.57" height="13.71"/>
			<rect id="XMLID_2613_" x="1698.46" y="713.23" class="st2" width="14.57" height="13.71"/>
			<rect id="XMLID_2612_" x="1727.17" y="713.23" class="st2" width="14.57" height="13.71"/>
			<rect id="XMLID_2611_" x="1612.32" y="834.93" class="st2" width="14.57" height="13.71"/>
			<rect id="XMLID_2610_" x="1641.03" y="834.93" class="st2" width="14.57" height="13.71"/>
			<rect id="XMLID_2609_" x="1669.74" y="834.93" class="st2" width="14.57" height="13.71"/>
			<rect id="XMLID_2608_" x="1698.46" y="834.93" class="st2" width="14.57" height="13.71"/>
			<rect id="XMLID_2607_" x="1727.17" y="834.93" class="st2" width="14.57" height="13.71"/>
			<rect id="XMLID_2606_" x="1612.32" y="860.64" class="st2" width="14.57" height="13.71"/>
			<rect id="XMLID_2605_" x="1641.03" y="860.64" class="st2" width="14.57" height="13.71"/>
			<rect id="XMLID_2604_" x="1669.74" y="860.64" class="st2" width="14.57" height="13.71"/>
			<rect id="XMLID_2603_" x="1698.46" y="860.64" class="st2" width="14.57" height="13.71"/>
			<rect id="XMLID_2602_" x="1727.17" y="860.64" class="st2" width="14.57" height="13.71"/>
		</g>
	</g>
	<g id="XMLID_2594_">
		<polyline id="XMLID_2599_" class="st5" points="0,952 0,428.92 140.23,428.92 140.23,891.15 1920,895.65 1920,952 		"/>
		<rect id="XMLID_2598_" x="13.45" y="403.94" class="st5" width="113.33" height="24.99"/>
		<rect id="XMLID_2597_" x="26.73" y="347.24" class="st5" width="86.76" height="56.7"/>
		<polygon id="XMLID_2596_" class="st5" points="46.94,351.08 46.94,322.25 71.67,296.54 93.28,323.81 93.28,347.24 		"/>
		<path id="XMLID_2595_" class="st5" d="M71.28,312.64h-2.33c-0.2,0-0.36-0.16-0.36-0.36v-80.01c0-0.2,0.16-0.36,0.36-0.36h2.33
			c0.2,0,0.36,0.16,0.36,0.36v80.01C71.63,312.48,71.47,312.64,71.28,312.64z"/>
	</g>
</g>
</svg>
