<?xml version="1.0" encoding="utf-8"?>
<!-- Generator: Adobe Illustrator 25.0.0, SVG Export Plug-In . SVG Version: 6.00 Build 0)  -->
<svg version="1.1" id="Capa_1" xmlns="http://www.w3.org/2000/svg" xmlns:xlink="http://www.w3.org/1999/xlink" x="0px" y="0px"
	 viewBox="0 0 1280 680" style="enable-background:new 0 0 1280 680;" xml:space="preserve">
<style type="text/css">
	.st0{opacity:0.27;fill:#0077BD;}
	.st1{opacity:0.3;}
	.st2{fill:#2E8CCC;}
	.st3{clip-path:url(#XMLID_650_);fill:#0077BD;}
	.st4{clip-path:url(#XMLID_651_);fill:#0077BD;}
	.st5{fill:#0077BD;}
	.st6{fill:#1D71B8;}
	.st7{fill:#ED7233;}
	.st8{fill:#EF8221;}
	.st9{fill:#FFFFFF;}
	.st10{clip-path:url(#XMLID_652_);fill:#0077BD;}
	.st11{clip-path:url(#XMLID_653_);fill:#0077BD;}
	.st12{clip-path:url(#XMLID_654_);fill:#0077BD;}
	.st13{clip-path:url(#XMLID_655_);fill:#0077BD;}
	.st14{opacity:0.5;}
	.st15{clip-path:url(#XMLID_656_);fill:#0077BD;}
	.st16{clip-path:url(#XMLID_657_);fill:#0077BD;}
	.st17{opacity:0.22;}
	.st18{fill:none;stroke:#FFFFFF;stroke-width:4;stroke-miterlimit:10;}
	.st19{clip-path:url(#XMLID_658_);fill:#0077BD;}
	.st20{clip-path:url(#XMLID_659_);fill:#0077BD;}
	.st21{fill:#0066CC;}
	.st22{opacity:0.27;fill:#BADAED;}
	.st23{opacity:0.27;fill:url(#SVGID_1_);}
	.st24{fill:none;stroke:#FFFFFF;stroke-miterlimit:10;}
	.st25{fill:none;stroke:#FFFFFF;stroke-width:2;stroke-miterlimit:10;}
</style>
<rect x="0" y="-120" class="st0" width="1280" height="800"/>
<g id="XMLID_1297_" class="st14">
	<g id="XMLID_1606_">
		<g id="XMLID_1614_">
			<polygon id="XMLID_1620_" class="st2" points="77.22,640.39 108.29,521.86 158.78,521.86 127.71,640.39 			"/>
			<g id="XMLID_1615_">
				<defs>
					<polygon id="XMLID_1616_" points="77.22,640.39 108.29,521.86 158.78,521.86 127.71,640.39 					"/>
				</defs>
				<clipPath id="XMLID_650_">
					<use xlink:href="#XMLID_1616_"  style="overflow:visible;"/>
				</clipPath>
				<rect id="XMLID_1619_" x="101.12" y="538.11" class="st3" width="55.48" height="3.99"/>
				<rect id="XMLID_1618_" x="93.44" y="568.66" class="st3" width="55.48" height="3.99"/>
				<rect id="XMLID_1617_" x="85.77" y="599.22" class="st3" width="55.48" height="3.99"/>
			</g>
		</g>
		<g id="XMLID_1607_">
			<polygon id="XMLID_1613_" class="st2" points="250.92,640.39 219.85,521.86 169.36,521.86 200.43,640.39 			"/>
			<g id="XMLID_1608_">
				<defs>
					<polygon id="XMLID_1609_" points="250.92,640.39 219.85,521.86 169.36,521.86 200.43,640.39 					"/>
				</defs>
				<clipPath id="XMLID_651_">
					<use xlink:href="#XMLID_1609_"  style="overflow:visible;"/>
				</clipPath>
				
					<rect id="XMLID_1612_" x="171.54" y="538.11" transform="matrix(-1 -1.224647e-16 1.224647e-16 -1 398.5675 1080.2045)" class="st4" width="55.48" height="3.99"/>
				
					<rect id="XMLID_1611_" x="179.22" y="568.66" transform="matrix(-1 -1.224647e-16 1.224647e-16 -1 413.9174 1141.3185)" class="st4" width="55.48" height="3.99"/>
				
					<rect id="XMLID_1610_" x="186.89" y="599.22" transform="matrix(-1 -1.224647e-16 1.224647e-16 -1 429.2673 1202.4325)" class="st4" width="55.48" height="3.99"/>
			</g>
		</g>
	</g>
	<g id="XMLID_1599_">
		<polygon id="XMLID_1605_" class="st5" points="730.98,641.26 738.28,451.11 745.59,451.11 751.78,641.26 		"/>
		<rect id="XMLID_1604_" x="723.1" y="439.86" class="st5" width="37.3" height="7.88"/>
		<polygon id="XMLID_1603_" class="st5" points="738.28,451.11 723.1,447.73 760.4,447.73 745.59,451.11 		"/>
		<path id="XMLID_1602_" class="st5" d="M763.56,439.86H719c-0.43,0-0.77-0.35-0.77-0.77v-12.52c0-0.43,0.35-0.77,0.77-0.77h44.56
			c0.43,0,0.77,0.35,0.77,0.77v12.52C764.34,439.51,763.99,439.86,763.56,439.86z"/>
		<path id="XMLID_1601_" class="st5" d="M731.04,377.13l-5.13,48.67h30.92l-6.31-48.71c-0.11-0.88-0.87-1.55-1.76-1.55h-15.96
			C731.9,375.54,731.14,376.22,731.04,377.13z"/>
		<path id="XMLID_1600_" class="st5" d="M735.1,378.35l4.45-75.11c0,0,1.12-1.31,2.16,0l4.45,72.3L735.1,378.35z"/>
	</g>
	<g id="XMLID_1493_">
		<rect id="XMLID_1598_" x="246.93" y="591.86" class="st5" width="368.51" height="9.53"/>
		<g id="XMLID_1544_">
			<rect id="XMLID_1597_" x="227.61" y="595.08" class="st5" width="20.92" height="47.77"/>
			<path id="XMLID_1596_" class="st2" d="M251.41,596.02h-27.48c-0.19,0-0.34-0.15-0.34-0.34v-1.2c0-0.19,0.15-0.34,0.34-0.34h27.48
				c0.19,0,0.34,0.15,0.34,0.34v1.2C251.75,595.87,251.6,596.02,251.41,596.02z"/>
			<path id="XMLID_1595_" class="st2" d="M251.41,606.29h-27.48c-0.19,0-0.34-0.15-0.34-0.34v-1.2c0-0.19,0.15-0.34,0.34-0.34h27.48
				c0.19,0,0.34,0.15,0.34,0.34v1.2C251.75,606.13,251.6,606.29,251.41,606.29z"/>
			<rect id="XMLID_1594_" x="228.82" y="581.53" class="st5" width="18.51" height="12.61"/>
			<path id="XMLID_1593_" class="st5" d="M236.67,569.66l-8.25,11.87h18.51l-7.53-11.82C238.77,568.73,237.34,568.7,236.67,569.66z"
				/>
			<rect id="XMLID_1592_" x="232.62" y="611.45" class="st2" width="11" height="21.29"/>
			<rect id="XMLID_1591_" x="421.25" y="546.82" class="st2" width="11" height="21.29"/>
			<rect id="XMLID_1590_" x="255.44" y="601.39" class="st5" width="6.25" height="37.8"/>
			<g id="XMLID_1587_">
				<polygon id="XMLID_1589_" class="st5" points="264.16,601.39 261.68,604.17 261.68,601.39 				"/>
				<polygon id="XMLID_1588_" class="st5" points="252.96,601.39 255.44,604.17 255.44,601.39 				"/>
			</g>
			<rect id="XMLID_1586_" x="254.1" y="639.19" class="st5" width="8.91" height="3.66"/>
			<rect id="XMLID_1585_" x="273.94" y="601.39" class="st5" width="6.25" height="37.8"/>
			<g id="XMLID_1582_">
				<polygon id="XMLID_1584_" class="st5" points="282.66,601.39 280.19,604.17 280.19,601.39 				"/>
				<polygon id="XMLID_1583_" class="st5" points="271.47,601.39 273.94,604.17 273.94,601.39 				"/>
			</g>
			<rect id="XMLID_1581_" x="272.61" y="639.19" class="st5" width="8.91" height="3.66"/>
			<rect id="XMLID_1580_" x="292.45" y="601.39" class="st5" width="6.25" height="37.8"/>
			<g id="XMLID_1577_">
				<polygon id="XMLID_1579_" class="st5" points="301.17,601.39 298.69,604.17 298.69,601.39 				"/>
				<polygon id="XMLID_1578_" class="st5" points="289.97,601.39 292.45,604.17 292.45,601.39 				"/>
			</g>
			<rect id="XMLID_1576_" x="291.11" y="639.19" class="st5" width="8.91" height="3.66"/>
			<rect id="XMLID_1575_" x="310.95" y="601.39" class="st5" width="6.25" height="37.8"/>
			<g id="XMLID_1572_">
				<polygon id="XMLID_1574_" class="st5" points="319.67,601.39 317.2,604.17 317.2,601.39 				"/>
				<polygon id="XMLID_1573_" class="st5" points="308.48,601.39 310.95,604.17 310.95,601.39 				"/>
			</g>
			<rect id="XMLID_1571_" x="309.62" y="639.19" class="st5" width="8.91" height="3.66"/>
			<rect id="XMLID_1570_" x="329.46" y="601.39" class="st5" width="6.25" height="37.8"/>
			<g id="XMLID_1567_">
				<polygon id="XMLID_1569_" class="st5" points="338.18,601.39 335.7,604.17 335.7,601.39 				"/>
				<polygon id="XMLID_1568_" class="st5" points="326.98,601.39 329.46,604.17 329.46,601.39 				"/>
			</g>
			<rect id="XMLID_1566_" x="328.13" y="639.19" class="st5" width="8.91" height="3.66"/>
			<rect id="XMLID_1565_" x="347.96" y="601.39" class="st5" width="6.25" height="37.8"/>
			<g id="XMLID_1562_">
				<polygon id="XMLID_1564_" class="st5" points="356.69,601.39 354.21,604.17 354.21,601.39 				"/>
				<polygon id="XMLID_1563_" class="st5" points="345.49,601.39 347.96,604.17 347.96,601.39 				"/>
			</g>
			<rect id="XMLID_1561_" x="346.63" y="639.19" class="st5" width="8.91" height="3.66"/>
			<rect id="XMLID_1560_" x="366.47" y="601.39" class="st5" width="6.25" height="37.8"/>
			<g id="XMLID_1557_">
				<polygon id="XMLID_1559_" class="st5" points="375.19,601.39 372.72,604.17 372.72,601.39 				"/>
				<polygon id="XMLID_1558_" class="st5" points="363.99,601.39 366.47,604.17 366.47,601.39 				"/>
			</g>
			<rect id="XMLID_1556_" x="365.14" y="639.19" class="st5" width="8.91" height="3.66"/>
			<rect id="XMLID_1555_" x="384.98" y="601.39" class="st5" width="6.25" height="37.8"/>
			<g id="XMLID_1552_">
				<polygon id="XMLID_1554_" class="st5" points="393.7,601.39 391.22,604.17 391.22,601.39 				"/>
				<polygon id="XMLID_1553_" class="st5" points="382.5,601.39 384.98,604.17 384.98,601.39 				"/>
			</g>
			<rect id="XMLID_1551_" x="383.64" y="639.19" class="st5" width="8.91" height="3.66"/>
			<rect id="XMLID_1550_" x="416.56" y="510.55" class="st5" width="20.38" height="12.08"/>
			<path id="XMLID_1549_" class="st5" d="M436.61,512.06c0,5.43-4.4,9.83-9.82,9.83c-5.42,0-9.82-4.4-9.82-9.83
				c0-5.43,4.4-9.83,9.82-9.83C432.21,502.23,436.61,506.63,436.61,512.06z"/>
			<path id="XMLID_1548_" class="st5" d="M425.14,503.37c0,0,0.54-2.48-0.34-4.43c-0.87-1.95-1.81-2.82-2.68-5.03
				c-0.87-2.21-1.68-4.29,0.74-7.04c2.41-2.75,3.42-9.06,3.55-10.53c0.13-1.48,0.74-2.55,1.68-0.54c0.94,2.01,1.68,0.07,2.41-0.2
				c0.74-0.27,0.34,0.87,1.07,2.21c0.74,1.34,3.22,1.01,2.55,3.69c-0.67,2.68-3.55,1.48-3.49,2.42c0.07,0.94,2.55,2.95,3.15,5.7
				c0.6,2.75-1.48,5.17-2.41,7.31c-0.94,2.15,0.27,7.72,0.27,7.72s-1.81-0.81-1.81-1.01c0-0.2-0.67-4.23-0.87-4.36
				c-0.2-0.13,0.07,4.16,0.07,4.36c0,0.2-1.28-0.81-1.28-0.81v-3.82c0,0-0.87-0.07-1,0.67c-0.13,0.74,0,2.95,0,2.95L425.14,503.37z"
				/>
			<path id="XMLID_1547_" class="st5" d="M426.75,479.07c0,0-4.77,6.26-5.49,6.8c-0.72,0.54-1.06,1.34,0,0.81
				c1.06-0.54,4.01-2.86,4.28-3.22C425.81,483.09,426.75,479.07,426.75,479.07z"/>
			<path id="XMLID_1546_" class="st5" d="M415.49,570.93c-1.48,0.27-16.09,2.15-21.79,20.93h21.79V570.93z"/>
			<path id="XMLID_1545_" class="st5" d="M438.02,570.93c1.48,0.27,16.09,2.15,21.79,20.93h-21.79V570.93z"/>
		</g>
		<g id="XMLID_1497_">
			
				<rect id="XMLID_1543_" x="607.28" y="595.08" transform="matrix(-1 -1.224647e-16 1.224647e-16 -1 1235.4868 1237.929)" class="st5" width="20.92" height="47.77"/>
			<path id="XMLID_1542_" class="st2" d="M604.41,596.02h27.48c0.19,0,0.34-0.15,0.34-0.34v-1.2c0-0.19-0.15-0.34-0.34-0.34h-27.48
				c-0.19,0-0.34,0.15-0.34,0.34v1.2C604.07,595.87,604.22,596.02,604.41,596.02z"/>
			<path id="XMLID_1541_" class="st2" d="M604.41,606.29h27.48c0.19,0,0.34-0.15,0.34-0.34v-1.2c0-0.19-0.15-0.34-0.34-0.34h-27.48
				c-0.19,0-0.34,0.15-0.34,0.34v1.2C604.07,606.13,604.22,606.29,604.41,606.29z"/>
			
				<rect id="XMLID_1540_" x="608.49" y="581.53" transform="matrix(-1 -1.224647e-16 1.224647e-16 -1 1235.4868 1175.6721)" class="st6" width="18.51" height="12.61"/>
			<path id="XMLID_1539_" class="st5" d="M619.14,569.66l8.25,11.87h-18.51l7.53-11.82C617.05,568.73,618.48,568.7,619.14,569.66z"
				/>
			
				<rect id="XMLID_1538_" x="612.2" y="611.45" transform="matrix(-1 -1.224647e-16 1.224647e-16 -1 1235.3976 1244.1903)" class="st2" width="11" height="21.29"/>
			
				<rect id="XMLID_1537_" x="594.14" y="601.39" transform="matrix(-1 -1.224647e-16 1.224647e-16 -1 1194.5198 1240.577)" class="st5" width="6.25" height="37.8"/>
			<g id="XMLID_1534_">
				<polygon id="XMLID_1536_" class="st5" points="591.66,601.39 594.14,604.17 594.14,601.39 				"/>
				<polygon id="XMLID_1535_" class="st5" points="602.86,601.39 600.38,604.17 600.38,601.39 				"/>
			</g>
			
				<rect id="XMLID_1533_" x="592.8" y="639.19" transform="matrix(-1 -1.224647e-16 1.224647e-16 -1 1194.5198 1282.037)" class="st5" width="8.91" height="3.66"/>
			
				<rect id="XMLID_1532_" x="575.63" y="601.39" transform="matrix(-1 -1.224647e-16 1.224647e-16 -1 1157.5084 1240.577)" class="st5" width="6.25" height="37.8"/>
			<g id="XMLID_1529_">
				<polygon id="XMLID_1531_" class="st5" points="573.16,601.39 575.63,604.17 575.63,601.39 				"/>
				<polygon id="XMLID_1530_" class="st5" points="584.35,601.39 581.88,604.17 581.88,601.39 				"/>
			</g>
			
				<rect id="XMLID_1528_" x="574.3" y="639.19" transform="matrix(-1 -1.224647e-16 1.224647e-16 -1 1157.5084 1282.037)" class="st5" width="8.91" height="3.66"/>
			
				<rect id="XMLID_1527_" x="557.13" y="601.39" transform="matrix(-1 -1.224647e-16 1.224647e-16 -1 1120.4969 1240.577)" class="st5" width="6.25" height="37.8"/>
			<g id="XMLID_1524_">
				<polygon id="XMLID_1526_" class="st5" points="554.65,601.39 557.13,604.17 557.13,601.39 				"/>
				<polygon id="XMLID_1525_" class="st5" points="565.85,601.39 563.37,604.17 563.37,601.39 				"/>
			</g>
			
				<rect id="XMLID_1523_" x="555.79" y="639.19" transform="matrix(-1 -1.224647e-16 1.224647e-16 -1 1120.4969 1282.037)" class="st5" width="8.91" height="3.66"/>
			
				<rect id="XMLID_1522_" x="538.62" y="601.39" transform="matrix(-1 -1.224647e-16 1.224647e-16 -1 1083.4852 1240.577)" class="st5" width="6.25" height="37.8"/>
			<g id="XMLID_1519_">
				<polygon id="XMLID_1521_" class="st5" points="536.14,601.39 538.62,604.17 538.62,601.39 				"/>
				<polygon id="XMLID_1520_" class="st5" points="547.34,601.39 544.87,604.17 544.87,601.39 				"/>
			</g>
			
				<rect id="XMLID_1518_" x="537.29" y="639.19" transform="matrix(-1 -1.224647e-16 1.224647e-16 -1 1083.4855 1282.037)" class="st5" width="8.91" height="3.66"/>
			
				<rect id="XMLID_1517_" x="520.11" y="601.39" transform="matrix(-1 -1.224647e-16 1.224647e-16 -1 1046.4741 1240.577)" class="st5" width="6.25" height="37.8"/>
			<g id="XMLID_1514_">
				<polygon id="XMLID_1516_" class="st5" points="517.64,601.39 520.11,604.17 520.11,601.39 				"/>
				<polygon id="XMLID_1515_" class="st5" points="528.84,601.39 526.36,604.17 526.36,601.39 				"/>
			</g>
			
				<rect id="XMLID_1513_" x="518.78" y="639.19" transform="matrix(-1 -1.224647e-16 1.224647e-16 -1 1046.4741 1282.037)" class="st5" width="8.91" height="3.66"/>
			
				<rect id="XMLID_1512_" x="501.61" y="601.39" transform="matrix(-1 -1.224647e-16 1.224647e-16 -1 1009.4625 1240.577)" class="st5" width="6.25" height="37.8"/>
			<g id="XMLID_1509_">
				<polygon id="XMLID_1511_" class="st5" points="499.13,601.39 501.61,604.17 501.61,601.39 				"/>
				<polygon id="XMLID_1510_" class="st5" points="510.33,601.39 507.85,604.17 507.85,601.39 				"/>
			</g>
			
				<rect id="XMLID_1508_" x="500.28" y="639.19" transform="matrix(-1 -1.224647e-16 1.224647e-16 -1 1009.4627 1282.037)" class="st5" width="8.91" height="3.66"/>
			
				<rect id="XMLID_1507_" x="483.1" y="601.39" transform="matrix(-1 -1.224647e-16 1.224647e-16 -1 972.4513 1240.577)" class="st5" width="6.25" height="37.8"/>
			<g id="XMLID_1504_">
				<polygon id="XMLID_1506_" class="st5" points="480.63,601.39 483.1,604.17 483.1,601.39 				"/>
				<polygon id="XMLID_1505_" class="st5" points="491.82,601.39 489.35,604.17 489.35,601.39 				"/>
			</g>
			
				<rect id="XMLID_1503_" x="481.77" y="639.19" transform="matrix(-1 -1.224647e-16 1.224647e-16 -1 972.451 1282.037)" class="st5" width="8.91" height="3.66"/>
			
				<rect id="XMLID_1502_" x="464.6" y="601.39" transform="matrix(-1 -1.224647e-16 1.224647e-16 -1 935.4396 1240.577)" class="st5" width="6.25" height="37.8"/>
			<g id="XMLID_1499_">
				<polygon id="XMLID_1501_" class="st5" points="462.12,601.39 464.6,604.17 464.6,601.39 				"/>
				<polygon id="XMLID_1500_" class="st5" points="473.32,601.39 470.84,604.17 470.84,601.39 				"/>
			</g>
			
				<rect id="XMLID_1498_" x="463.26" y="639.19" transform="matrix(-1 -1.224647e-16 1.224647e-16 -1 935.4399 1282.037)" class="st5" width="8.91" height="3.66"/>
		</g>
		<rect id="XMLID_1496_" x="393.7" y="599.91" class="st5" width="66.11" height="42.94"/>
		<rect id="XMLID_1495_" x="415.49" y="526.92" class="st5" width="22.53" height="82.38"/>
		<rect id="XMLID_1494_" x="410.79" y="522.63" class="st5" width="33.26" height="4.29"/>
	</g>
	<g id="XMLID_1482_">
		<path id="XMLID_1492_" class="st5" d="M893.05,269.89H768.56v387.35h16.71c6.53-20.12,23.1-34.66,45.38-34.66
			c22.28,0,41.16,14.55,47.69,34.66h14.71V269.89z"/>
		<rect id="XMLID_1491_" x="778.16" y="280.62" class="st2" width="5.19" height="326.9"/>
		<rect id="XMLID_1490_" x="790.56" y="280.62" class="st2" width="5.19" height="326.9"/>
		<rect id="XMLID_1489_" x="802.95" y="280.62" class="st2" width="5.19" height="326.9"/>
		<rect id="XMLID_1488_" x="815.34" y="280.62" class="st2" width="5.19" height="326.9"/>
		<rect id="XMLID_1487_" x="827.73" y="280.62" class="st2" width="5.19" height="326.9"/>
		<rect id="XMLID_1486_" x="840.12" y="280.62" class="st2" width="5.19" height="326.9"/>
		<rect id="XMLID_1485_" x="852.51" y="280.62" class="st2" width="5.19" height="326.9"/>
		<rect id="XMLID_1484_" x="864.9" y="280.62" class="st2" width="5.19" height="326.9"/>
		<rect id="XMLID_1483_" x="877.29" y="280.62" class="st2" width="5.19" height="326.9"/>
	</g>
	<g id="XMLID_1455_">
		<rect id="XMLID_1481_" x="961.93" y="201.56" class="st5" width="19.85" height="446.84"/>
		
			<rect id="XMLID_1480_" x="1009.48" y="173.86" transform="matrix(-1.836970e-16 1 -1 -1.836970e-16 1230.8958 -807.9254)" class="st5" width="19.86" height="75.26"/>
		<rect id="XMLID_1479_" x="1043.81" y="201.56" class="st5" width="19.85" height="446.84"/>
		<rect id="XMLID_1478_" x="981.78" y="254.51" class="st2" width="62.03" height="393.88"/>
		<rect id="XMLID_1477_" x="913.97" y="263.62" class="st2" width="47.97" height="384.78"/>
		<g id="XMLID_1456_">
			<rect id="XMLID_1476_" x="981.78" y="263.62" class="st5" width="62.03" height="7.45"/>
			<rect id="XMLID_1475_" x="981.78" y="277.89" class="st5" width="62.03" height="7.45"/>
			<rect id="XMLID_1474_" x="981.78" y="292.16" class="st5" width="62.03" height="7.45"/>
			<rect id="XMLID_1473_" x="981.78" y="306.44" class="st5" width="62.03" height="7.45"/>
			<rect id="XMLID_1472_" x="981.78" y="320.71" class="st5" width="62.03" height="7.45"/>
			<rect id="XMLID_1471_" x="981.78" y="334.99" class="st5" width="62.03" height="7.45"/>
			<rect id="XMLID_1470_" x="981.78" y="377.81" class="st5" width="62.03" height="7.45"/>
			<rect id="XMLID_1469_" x="981.78" y="392.08" class="st5" width="62.03" height="7.45"/>
			<rect id="XMLID_1468_" x="981.78" y="406.36" class="st5" width="62.03" height="7.45"/>
			<rect id="XMLID_1467_" x="981.78" y="420.63" class="st5" width="62.03" height="7.45"/>
			<rect id="XMLID_1466_" x="981.78" y="434.9" class="st5" width="62.03" height="7.45"/>
			<rect id="XMLID_1465_" x="981.78" y="449.18" class="st5" width="62.03" height="7.45"/>
			<rect id="XMLID_1464_" x="981.78" y="463.45" class="st5" width="62.03" height="7.45"/>
			<rect id="XMLID_1463_" x="981.78" y="506.27" class="st5" width="62.03" height="7.45"/>
			<rect id="XMLID_1462_" x="981.78" y="520.55" class="st5" width="62.03" height="7.45"/>
			<rect id="XMLID_1461_" x="981.78" y="534.82" class="st5" width="62.03" height="7.45"/>
			<rect id="XMLID_1460_" x="981.78" y="549.1" class="st5" width="62.03" height="7.45"/>
			<rect id="XMLID_1459_" x="981.78" y="563.37" class="st5" width="62.03" height="7.45"/>
			<rect id="XMLID_1458_" x="981.78" y="577.64" class="st5" width="62.03" height="7.45"/>
			<rect id="XMLID_1457_" x="981.78" y="591.92" class="st5" width="62.03" height="7.45"/>
		</g>
	</g>
	<g id="XMLID_1436_">
		<g id="XMLID_1449_">
			<rect id="XMLID_1454_" x="669.8" y="606.29" class="st5" width="6.19" height="33.36"/>
			<rect id="XMLID_1453_" x="684.07" y="606.29" class="st5" width="6.19" height="33.36"/>
			<rect id="XMLID_1452_" x="669.39" y="600.63" class="st5" width="21.39" height="5.66"/>
			<rect id="XMLID_1451_" x="668.87" y="594.13" class="st5" width="22.09" height="1.28"/>
			<rect id="XMLID_1450_" x="669.74" y="595.41" class="st5" width="20.52" height="5.22"/>
		</g>
		<g id="XMLID_1443_">
			<rect id="XMLID_1448_" x="662.9" y="584.53" class="st2" width="10.41" height="57.12"/>
			<rect id="XMLID_1447_" x="686.91" y="584.53" class="st2" width="10.41" height="57.12"/>
			<rect id="XMLID_1446_" x="662.2" y="575.01" class="st2" width="35.98" height="9.52"/>
			<rect id="XMLID_1445_" x="661.34" y="564.08" class="st2" width="37.17" height="2.16"/>
			<rect id="XMLID_1444_" x="662.8" y="566.23" class="st2" width="34.52" height="8.78"/>
		</g>
		<g id="XMLID_1437_">
			<rect id="XMLID_1442_" x="640.36" y="552.97" class="st5" width="24.18" height="94.36"/>
			<rect id="XMLID_1441_" x="696.16" y="552.97" class="st5" width="24.18" height="94.36"/>
			<rect id="XMLID_1440_" x="638.75" y="530.85" class="st5" width="83.6" height="22.12"/>
			<rect id="XMLID_1439_" x="636.74" y="505.44" class="st5" width="86.37" height="5.01"/>
			<rect id="XMLID_1438_" x="640.13" y="510.45" class="st5" width="80.21" height="20.39"/>
		</g>
	</g>
	<g id="XMLID_1304_">
		<rect id="XMLID_1435_" x="1172.01" y="331.24" class="st5" width="107.99" height="318.79"/>
		<rect id="XMLID_1434_" x="1064.03" y="537.96" class="st5" width="107.99" height="112.08"/>
		<rect id="XMLID_1433_" x="1084.59" y="467.3" class="st5" width="87.42" height="76.94"/>
		<rect id="XMLID_1432_" x="1187.41" y="302" class="st5" width="82.28" height="29.25"/>
		<g id="XMLID_1343_">
			<rect id="XMLID_1431_" x="1182.87" y="344.85" class="st2" width="9.71" height="9.14"/>
			<rect id="XMLID_1430_" x="1202.01" y="344.85" class="st2" width="9.71" height="9.14"/>
			<rect id="XMLID_1429_" x="1197.15" y="312.05" class="st2" width="9.71" height="9.14"/>
			<rect id="XMLID_1428_" x="1223.7" y="312.05" class="st2" width="9.71" height="9.14"/>
			<rect id="XMLID_1427_" x="1250.24" y="312.05" class="st2" width="9.71" height="9.14"/>
			<rect id="XMLID_1426_" x="1221.15" y="344.85" class="st2" width="9.71" height="9.14"/>
			<rect id="XMLID_1425_" x="1240.29" y="344.85" class="st2" width="9.71" height="9.14"/>
			<rect id="XMLID_1424_" x="1259.43" y="344.85" class="st2" width="9.71" height="9.14"/>
			<rect id="XMLID_1423_" x="1182.87" y="361.99" class="st2" width="9.71" height="9.14"/>
			<rect id="XMLID_1422_" x="1202.01" y="361.99" class="st2" width="9.71" height="9.14"/>
			<rect id="XMLID_1421_" x="1221.15" y="361.99" class="st2" width="9.71" height="9.14"/>
			<rect id="XMLID_1420_" x="1240.29" y="361.99" class="st2" width="9.71" height="9.14"/>
			<rect id="XMLID_1419_" x="1259.43" y="361.99" class="st2" width="9.71" height="9.14"/>
			<rect id="XMLID_1418_" x="1182.87" y="379.13" class="st2" width="9.71" height="9.14"/>
			<rect id="XMLID_1417_" x="1202.01" y="379.13" class="st2" width="9.71" height="9.14"/>
			<rect id="XMLID_1416_" x="1221.15" y="379.13" class="st2" width="9.71" height="9.14"/>
			<rect id="XMLID_1415_" x="1240.29" y="379.13" class="st2" width="9.71" height="9.14"/>
			<rect id="XMLID_1414_" x="1259.43" y="379.13" class="st2" width="9.71" height="9.14"/>
			<rect id="XMLID_1413_" x="1182.87" y="396.27" class="st2" width="9.71" height="9.14"/>
			<rect id="XMLID_1412_" x="1202.01" y="396.27" class="st2" width="9.71" height="9.14"/>
			<rect id="XMLID_1411_" x="1221.15" y="396.27" class="st2" width="9.71" height="9.14"/>
			<rect id="XMLID_1410_" x="1240.29" y="396.27" class="st2" width="9.71" height="9.14"/>
			<rect id="XMLID_1409_" x="1259.43" y="396.27" class="st2" width="9.71" height="9.14"/>
			<rect id="XMLID_1408_" x="1182.87" y="413.41" class="st2" width="9.71" height="9.14"/>
			<rect id="XMLID_1407_" x="1202.01" y="413.41" class="st2" width="9.71" height="9.14"/>
			<rect id="XMLID_1406_" x="1221.15" y="413.41" class="st2" width="9.71" height="9.14"/>
			<rect id="XMLID_1405_" x="1240.29" y="413.41" class="st2" width="9.71" height="9.14"/>
			<rect id="XMLID_1404_" x="1259.43" y="413.41" class="st2" width="9.71" height="9.14"/>
			<rect id="XMLID_1403_" x="1182.87" y="430.55" class="st2" width="9.71" height="9.14"/>
			<rect id="XMLID_1402_" x="1202.01" y="430.55" class="st2" width="9.71" height="9.14"/>
			<rect id="XMLID_1401_" x="1221.15" y="430.55" class="st2" width="9.71" height="9.14"/>
			<rect id="XMLID_1400_" x="1240.29" y="430.55" class="st2" width="9.71" height="9.14"/>
			<rect id="XMLID_1399_" x="1259.43" y="430.55" class="st2" width="9.71" height="9.14"/>
			<rect id="XMLID_1398_" x="1182.87" y="447.69" class="st2" width="9.71" height="9.14"/>
			<rect id="XMLID_1397_" x="1202.01" y="447.69" class="st2" width="9.71" height="9.14"/>
			<rect id="XMLID_1396_" x="1221.15" y="447.69" class="st2" width="9.71" height="9.14"/>
			<rect id="XMLID_1395_" x="1240.29" y="447.69" class="st2" width="9.71" height="9.14"/>
			<rect id="XMLID_1394_" x="1259.43" y="447.69" class="st2" width="9.71" height="9.14"/>
			<rect id="XMLID_1393_" x="1182.87" y="464.83" class="st2" width="9.71" height="9.14"/>
			<rect id="XMLID_1392_" x="1202.01" y="464.83" class="st2" width="9.71" height="9.14"/>
			<rect id="XMLID_1391_" x="1221.15" y="464.83" class="st2" width="9.71" height="9.14"/>
			<rect id="XMLID_1390_" x="1240.29" y="464.83" class="st2" width="9.71" height="9.14"/>
			<rect id="XMLID_1389_" x="1259.43" y="464.83" class="st2" width="9.71" height="9.14"/>
			<rect id="XMLID_1388_" x="1182.87" y="481.97" class="st2" width="9.71" height="9.14"/>
			<rect id="XMLID_1387_" x="1202.01" y="481.97" class="st2" width="9.71" height="9.14"/>
			<rect id="XMLID_1386_" x="1221.15" y="481.97" class="st2" width="9.71" height="9.14"/>
			<rect id="XMLID_1385_" x="1240.29" y="481.97" class="st2" width="9.71" height="9.14"/>
			<rect id="XMLID_1384_" x="1259.43" y="481.97" class="st2" width="9.71" height="9.14"/>
			<rect id="XMLID_1383_" x="1182.87" y="499.11" class="st2" width="9.71" height="9.14"/>
			<rect id="XMLID_1382_" x="1202.01" y="499.11" class="st2" width="9.71" height="9.14"/>
			<rect id="XMLID_1381_" x="1221.15" y="499.11" class="st2" width="9.71" height="9.14"/>
			<rect id="XMLID_1380_" x="1240.29" y="499.11" class="st2" width="9.71" height="9.14"/>
			<rect id="XMLID_1379_" x="1259.43" y="499.11" class="st2" width="9.71" height="9.14"/>
			<rect id="XMLID_1378_" x="1182.87" y="516.25" class="st2" width="9.71" height="9.14"/>
			<rect id="XMLID_1377_" x="1202.01" y="516.25" class="st2" width="9.71" height="9.14"/>
			<rect id="XMLID_1376_" x="1221.15" y="516.25" class="st2" width="9.71" height="9.14"/>
			<rect id="XMLID_1375_" x="1240.29" y="516.25" class="st2" width="9.71" height="9.14"/>
			<rect id="XMLID_1374_" x="1259.43" y="516.25" class="st2" width="9.71" height="9.14"/>
			<rect id="XMLID_1373_" x="1182.87" y="533.39" class="st2" width="9.71" height="9.14"/>
			<rect id="XMLID_1372_" x="1202.01" y="533.39" class="st2" width="9.71" height="9.14"/>
			<rect id="XMLID_1371_" x="1221.15" y="533.39" class="st2" width="9.71" height="9.14"/>
			<rect id="XMLID_1370_" x="1240.29" y="533.39" class="st2" width="9.71" height="9.14"/>
			<rect id="XMLID_1369_" x="1259.43" y="533.39" class="st2" width="9.71" height="9.14"/>
			<rect id="XMLID_1368_" x="1182.87" y="550.53" class="st2" width="9.71" height="9.14"/>
			<rect id="XMLID_1367_" x="1202.01" y="550.53" class="st2" width="9.71" height="9.14"/>
			<rect id="XMLID_1366_" x="1221.15" y="550.53" class="st2" width="9.71" height="9.14"/>
			<rect id="XMLID_1365_" x="1240.29" y="550.53" class="st2" width="9.71" height="9.14"/>
			<rect id="XMLID_1364_" x="1259.43" y="550.53" class="st2" width="9.71" height="9.14"/>
			<rect id="XMLID_1363_" x="1182.87" y="567.67" class="st2" width="9.71" height="9.14"/>
			<rect id="XMLID_1362_" x="1202.01" y="567.67" class="st2" width="9.71" height="9.14"/>
			<rect id="XMLID_1361_" x="1221.15" y="567.67" class="st2" width="9.71" height="9.14"/>
			<rect id="XMLID_1360_" x="1240.29" y="567.67" class="st2" width="9.71" height="9.14"/>
			<rect id="XMLID_1359_" x="1259.43" y="567.67" class="st2" width="9.71" height="9.14"/>
			<rect id="XMLID_1358_" x="1182.87" y="584.81" class="st2" width="9.71" height="9.14"/>
			<rect id="XMLID_1357_" x="1202.01" y="584.81" class="st2" width="9.71" height="9.14"/>
			<rect id="XMLID_1356_" x="1221.15" y="584.81" class="st2" width="9.71" height="9.14"/>
			<rect id="XMLID_1355_" x="1240.29" y="584.81" class="st2" width="9.71" height="9.14"/>
			<rect id="XMLID_1354_" x="1259.43" y="584.81" class="st2" width="9.71" height="9.14"/>
			<rect id="XMLID_1353_" x="1182.87" y="601.95" class="st2" width="9.71" height="9.14"/>
			<rect id="XMLID_1352_" x="1202.01" y="601.95" class="st2" width="9.71" height="9.14"/>
			<rect id="XMLID_1351_" x="1221.15" y="601.95" class="st2" width="9.71" height="9.14"/>
			<rect id="XMLID_1350_" x="1240.29" y="601.95" class="st2" width="9.71" height="9.14"/>
			<rect id="XMLID_1349_" x="1259.43" y="601.95" class="st2" width="9.71" height="9.14"/>
			<rect id="XMLID_1348_" x="1182.87" y="619.09" class="st2" width="9.71" height="9.14"/>
			<rect id="XMLID_1347_" x="1202.01" y="619.09" class="st2" width="9.71" height="9.14"/>
			<rect id="XMLID_1346_" x="1221.15" y="619.09" class="st2" width="9.71" height="9.14"/>
			<rect id="XMLID_1345_" x="1240.29" y="619.09" class="st2" width="9.71" height="9.14"/>
			<rect id="XMLID_1344_" x="1259.43" y="619.09" class="st2" width="9.71" height="9.14"/>
		</g>
		<g id="XMLID_1305_">
			<rect id="XMLID_1342_" x="1074.88" y="550.53" class="st2" width="9.71" height="9.14"/>
			<rect id="XMLID_1341_" x="1094.02" y="550.53" class="st2" width="9.71" height="9.14"/>
			<rect id="XMLID_1340_" x="1113.16" y="550.53" class="st2" width="9.71" height="9.14"/>
			<rect id="XMLID_1339_" x="1132.3" y="550.53" class="st2" width="9.71" height="9.14"/>
			<rect id="XMLID_1338_" x="1151.45" y="550.53" class="st2" width="9.71" height="9.14"/>
			<rect id="XMLID_1337_" x="1074.88" y="567.67" class="st2" width="9.71" height="9.14"/>
			<rect id="XMLID_1336_" x="1094.02" y="567.67" class="st2" width="9.71" height="9.14"/>
			<rect id="XMLID_1335_" x="1113.16" y="567.67" class="st2" width="9.71" height="9.14"/>
			<rect id="XMLID_1334_" x="1132.3" y="567.67" class="st2" width="9.71" height="9.14"/>
			<rect id="XMLID_1333_" x="1151.45" y="567.67" class="st2" width="9.71" height="9.14"/>
			<rect id="XMLID_1332_" x="1074.88" y="584.81" class="st2" width="9.71" height="9.14"/>
			<rect id="XMLID_1331_" x="1094.02" y="584.81" class="st2" width="9.71" height="9.14"/>
			<rect id="XMLID_1330_" x="1113.16" y="584.81" class="st2" width="9.71" height="9.14"/>
			<rect id="XMLID_1329_" x="1132.3" y="584.81" class="st2" width="9.71" height="9.14"/>
			<rect id="XMLID_1328_" x="1151.45" y="584.81" class="st2" width="9.71" height="9.14"/>
			<rect id="XMLID_1327_" x="1094.02" y="486.54" class="st2" width="9.71" height="9.14"/>
			<rect id="XMLID_1326_" x="1113.16" y="486.54" class="st2" width="9.71" height="9.14"/>
			<rect id="XMLID_1325_" x="1132.3" y="486.54" class="st2" width="9.71" height="9.14"/>
			<rect id="XMLID_1324_" x="1151.45" y="486.54" class="st2" width="9.71" height="9.14"/>
			<rect id="XMLID_1323_" x="1094.02" y="503.68" class="st2" width="9.71" height="9.14"/>
			<rect id="XMLID_1322_" x="1113.16" y="503.68" class="st2" width="9.71" height="9.14"/>
			<rect id="XMLID_1321_" x="1132.3" y="503.68" class="st2" width="9.71" height="9.14"/>
			<rect id="XMLID_1320_" x="1151.45" y="503.68" class="st2" width="9.71" height="9.14"/>
			<rect id="XMLID_1319_" x="1094.02" y="520.82" class="st2" width="9.71" height="9.14"/>
			<rect id="XMLID_1318_" x="1113.16" y="520.82" class="st2" width="9.71" height="9.14"/>
			<rect id="XMLID_1317_" x="1132.3" y="520.82" class="st2" width="9.71" height="9.14"/>
			<rect id="XMLID_1316_" x="1151.45" y="520.82" class="st2" width="9.71" height="9.14"/>
			<rect id="XMLID_1315_" x="1074.88" y="601.95" class="st2" width="9.71" height="9.14"/>
			<rect id="XMLID_1314_" x="1094.02" y="601.95" class="st2" width="9.71" height="9.14"/>
			<rect id="XMLID_1313_" x="1113.16" y="601.95" class="st2" width="9.71" height="9.14"/>
			<rect id="XMLID_1312_" x="1132.3" y="601.95" class="st2" width="9.71" height="9.14"/>
			<rect id="XMLID_1311_" x="1151.45" y="601.95" class="st2" width="9.71" height="9.14"/>
			<rect id="XMLID_1310_" x="1074.88" y="619.09" class="st2" width="9.71" height="9.14"/>
			<rect id="XMLID_1309_" x="1094.02" y="619.09" class="st2" width="9.71" height="9.14"/>
			<rect id="XMLID_1308_" x="1113.16" y="619.09" class="st2" width="9.71" height="9.14"/>
			<rect id="XMLID_1307_" x="1132.3" y="619.09" class="st2" width="9.71" height="9.14"/>
			<rect id="XMLID_1306_" x="1151.45" y="619.09" class="st2" width="9.71" height="9.14"/>
		</g>
	</g>
	<g id="XMLID_1298_">
		<polyline id="XMLID_1303_" class="st5" points="0,680 0,331.28 93.48,331.28 93.48,639.43 1280,642.44 1280,680 		"/>
		<rect id="XMLID_1302_" x="8.96" y="314.62" class="st5" width="75.56" height="16.66"/>
		<rect id="XMLID_1301_" x="17.82" y="276.82" class="st5" width="57.84" height="37.8"/>
		<polygon id="XMLID_1300_" class="st5" points="31.29,279.39 31.29,260.17 47.78,243.03 62.19,261.21 62.19,276.82 		"/>
		<path id="XMLID_1299_" class="st5" d="M47.4,253.76h-1.31c-0.2,0-0.36-0.16-0.36-0.36v-53.1c0-0.2,0.16-0.36,0.36-0.36h1.31
			c0.2,0,0.36,0.16,0.36,0.36v53.1C47.76,253.6,47.6,253.76,47.4,253.76z"/>
	</g>
</g>
</svg>
